<?xml version="1.0" encoding="iso-8859-1"?>
<!-- Generator: Adobe Illustrator 21.0.0, SVG Export Plug-In . SVG Version: 6.00 Build 0)  -->
<svg version="1.1" id="Capa_1" xmlns="http://www.w3.org/2000/svg" xmlns:xlink="http://www.w3.org/1999/xlink" x="0px" y="0px"
	 viewBox="0 0 511.999 511.999" style="enable-background:new 0 0 511.999 511.999;" xml:space="preserve">
<path style="fill:#9B8CC8;" d="M439.616,24.414H117.91c-4.442,0-8.043,3.601-8.043,8.043v321.707c0,4.442,3.601,8.043,8.043,8.043
	h321.707c4.442,0,8.043-3.601,8.043-8.043V32.456C447.659,28.015,444.058,24.414,439.616,24.414z"/>
<path style="fill:#8A79BF;" d="M142.038,338.077c-4.442,0-8.043-3.601-8.043-8.043V24.414H117.91c-4.442,0-8.043,3.601-8.043,8.043
	v321.707c0,4.442,3.601,8.043,8.043,8.043h321.707c4.442,0,8.043-3.601,8.043-8.043v-16.085H142.038z"/>
<path style="fill:#F8D5E0;" d="M286.642,450.52c-1.363,0-2.747-0.348-4.013-1.078l-10.448-6.032
	c-3.846-2.222-5.165-7.141-2.945-10.987c2.222-3.846,7.141-5.165,10.987-2.944l4.415,2.549c2.407-1.389,5.466-1.488,8.044,0.001
	c3.846,2.221,5.165,7.14,2.944,10.986l-2.011,3.482C292.126,449.078,289.422,450.52,286.642,450.52z M248.335,428.403
	c-1.364,0-2.747-0.348-4.014-1.078l-10.448-6.032c-3.846-2.222-5.164-7.141-2.944-10.987c2.22-3.847,7.139-5.166,10.986-2.944
	l10.448,6.032c3.847,2.221,5.164,7.14,2.944,10.986C253.818,426.961,251.114,428.403,248.335,428.403z M304.738,419.178
	c-1.364,0-2.747-0.348-4.013-1.079c-3.846-2.221-5.165-7.14-2.944-10.986l6.032-10.447c2.221-3.846,7.14-5.165,10.986-2.944
	c3.846,2.221,5.165,7.14,2.944,10.986l-6.032,10.447C310.222,417.735,307.518,419.178,304.738,419.178z M210.026,406.285
	c-1.364,0-2.748-0.348-4.014-1.079l-10.447-6.032c-3.846-2.221-5.164-7.14-2.944-10.986c2.221-3.847,7.14-5.165,10.986-2.944
	l10.447,6.032c3.846,2.221,5.164,7.14,2.944,10.986C215.508,404.844,212.805,406.285,210.026,406.285z M171.718,384.168
	c-1.364,0-2.748-0.348-4.014-1.079l-10.447-6.032c-3.846-2.221-5.164-7.14-2.944-10.986c2.221-3.847,7.141-5.165,10.986-2.944
	l10.447,6.032c3.846,2.221,5.164,7.14,2.944,10.986C177.2,382.726,174.497,384.168,171.718,384.168z M326.855,380.869
	c-1.364,0-2.747-0.348-4.013-1.078c-3.846-2.222-5.165-7.141-2.945-10.987l6.032-10.448c2.222-3.847,7.141-5.163,10.987-2.945
	c3.846,2.222,5.165,7.141,2.945,10.987l-6.032,10.448C332.339,379.428,329.635,380.869,326.855,380.869z M133.41,362.051
	c-1.364,0-2.748-0.348-4.014-1.079l-10.447-6.032c-3.846-2.221-5.164-7.14-2.944-10.986c2.221-3.847,7.14-5.165,10.986-2.944
	l10.447,6.032c3.846,2.221,5.164,7.14,2.944,10.986C138.892,360.609,136.189,362.051,133.41,362.051z M348.972,342.561
	c-1.364,0-2.747-0.348-4.013-1.078c-3.846-2.222-5.165-7.141-2.945-10.987l6.032-10.448c2.222-3.846,7.141-5.163,10.987-2.945
	c3.846,2.222,5.165,7.141,2.945,10.987l-6.032,10.448C354.457,341.118,351.752,342.561,348.972,342.561z M95.102,339.933
	c-1.364,0-2.747-0.348-4.014-1.078l-10.448-6.032c-3.846-2.222-5.164-7.141-2.944-10.987c2.22-3.846,7.139-5.166,10.986-2.944
	l10.448,6.032c3.846,2.221,5.164,7.14,2.944,10.986C100.585,338.492,97.88,339.933,95.102,339.933z M56.793,317.816
	c-1.364,0-2.748-0.348-4.014-1.079l-10.447-6.032c-3.846-2.221-5.164-7.14-2.944-10.986c2.221-3.847,7.14-5.166,10.986-2.944
	l10.447,6.032c3.846,2.221,5.164,7.14,2.944,10.986C62.276,316.374,59.572,317.816,56.793,317.816z M371.09,304.252
	c-1.364,0-2.747-0.348-4.013-1.079c-3.846-2.221-5.165-7.14-2.944-10.986l6.032-10.447c2.22-3.847,7.14-5.165,10.986-2.944
	c3.846,2.221,5.165,7.14,2.944,10.986l-6.032,10.447C376.574,302.81,373.87,304.252,371.09,304.252z M18.484,295.699
	c-1.364,0-2.748-0.348-4.014-1.079l-10.447-6.032c-3.847-2.221-5.164-7.14-2.944-10.986c2.221-3.847,7.14-5.165,10.986-2.944
	l10.447,6.032c3.846,2.221,5.164,7.14,2.944,10.986C23.967,294.257,21.264,295.699,18.484,295.699z M393.207,265.945
	c-1.364,0-2.747-0.348-4.013-1.078c-3.846-2.222-5.165-7.141-2.945-10.987l6.032-10.448c2.222-3.847,7.14-5.164,10.987-2.945
	c3.846,2.222,5.165,7.141,2.945,10.987l-6.032,10.448C398.691,264.502,395.987,265.945,393.207,265.945z M24.122,261.806
	c-1.364,0-2.747-0.348-4.014-1.078c-3.846-2.222-5.164-7.141-2.944-10.987l6.032-10.448c2.22-3.847,7.139-5.165,10.986-2.944
	c3.846,2.221,5.164,7.14,2.944,10.986l-6.032,10.448C29.605,260.364,26.902,261.806,24.122,261.806z M415.324,227.636
	c-1.364,0-2.747-0.348-4.013-1.079c-3.846-2.221-5.165-7.14-2.944-10.986l6.032-10.447c2.221-3.847,7.14-5.165,10.986-2.944
	c3.846,2.221,5.165,7.14,2.944,10.986l-6.032,10.447C420.809,226.194,418.104,227.636,415.324,227.636z M46.24,223.498
	c-1.364,0-2.748-0.348-4.014-1.079c-3.847-2.221-5.164-7.14-2.944-10.986l6.032-10.447c2.221-3.847,7.14-5.165,10.986-2.944
	c3.847,2.221,5.164,7.14,2.944,10.986l-6.032,10.447C51.723,222.055,49.019,223.498,46.24,223.498z M437.442,189.328
	c-1.364,0-2.747-0.348-4.013-1.078c-3.846-2.222-5.165-7.141-2.945-10.987l6.032-10.448c2.222-3.847,7.141-5.163,10.987-2.945
	c3.846,2.222,5.165,7.141,2.945,10.987l-6.032,10.448C442.926,187.886,440.221,189.328,437.442,189.328z M68.357,185.189
	c-1.364,0-2.747-0.348-4.014-1.078c-3.846-2.222-5.164-7.141-2.944-10.987l6.032-10.448c2.22-3.847,7.139-5.163,10.986-2.945
	c3.846,2.222,5.164,7.141,2.944,10.987l-6.032,10.448C73.84,183.748,71.137,185.189,68.357,185.189z M426.6,159.85
	c-1.364,0-2.747-0.348-4.013-1.078l-10.448-6.032c-3.846-2.222-5.165-7.141-2.945-10.987c2.222-3.847,7.14-5.166,10.987-2.944
	l10.448,6.032c3.846,2.221,5.165,7.14,2.944,10.986C432.083,158.408,429.38,159.85,426.6,159.85z M90.474,146.881
	c-1.364,0-2.747-0.348-4.014-1.078c-3.846-2.222-5.164-7.141-2.944-10.987l6.032-10.448c2.22-3.847,7.138-5.163,10.986-2.945
	c3.846,2.222,5.164,7.141,2.944,10.987l-6.032,10.448C95.957,145.439,93.254,146.881,90.474,146.881z M388.292,137.733
	c-1.364,0-2.747-0.348-4.013-1.079l-10.447-6.032c-3.846-2.221-5.165-7.14-2.944-10.986c2.221-3.847,7.14-5.165,10.986-2.944
	l10.447,6.032c3.846,2.221,5.165,7.14,2.944,10.986C393.775,136.291,391.071,137.733,388.292,137.733z M349.984,115.615
	c-1.364,0-2.747-0.348-4.013-1.078l-10.448-6.032c-3.846-2.222-5.165-7.141-2.945-10.987c2.221-3.845,7.139-5.166,10.987-2.944
	l10.448,6.032c3.846,2.221,5.165,7.14,2.945,10.986C355.467,114.174,352.764,115.615,349.984,115.615z M112.592,108.573
	c-1.364,0-2.748-0.348-4.014-1.079c-3.847-2.221-5.164-7.14-2.944-10.986l6.032-10.447c2.221-3.846,7.14-5.166,10.986-2.944
	c3.847,2.221,5.164,7.14,2.944,10.986l-6.032,10.447C118.075,107.13,115.371,108.573,112.592,108.573z M311.676,93.498
	c-1.364,0-2.747-0.348-4.013-1.078l-10.448-6.032c-3.846-2.222-5.165-7.141-2.945-10.987c2.222-3.845,7.14-5.166,10.987-2.944
	l10.448,6.032c3.846,2.221,5.165,7.14,2.945,10.986C317.159,92.056,314.454,93.498,311.676,93.498z M273.366,71.381
	c-1.364,0-2.747-0.348-4.013-1.079l-10.447-6.032c-3.847-2.221-5.164-7.14-2.944-10.986s7.141-5.165,10.986-2.944l10.447,6.032
	c3.846,2.221,5.165,7.14,2.944,10.986C278.849,69.939,276.146,71.381,273.366,71.381z M134.709,70.265
	c-1.364,0-2.747-0.348-4.014-1.079c-3.846-2.221-5.164-7.14-2.944-10.986l6.032-10.448c2.22-3.847,7.139-5.163,10.986-2.945
	c3.846,2.222,5.164,7.141,2.944,10.987l-6.032,10.448C140.192,68.822,137.489,70.265,134.709,70.265z M235.059,49.263
	c-1.364,0-2.747-0.348-4.014-1.078l-10.448-6.032c-3.846-2.222-5.164-7.141-2.944-10.987c2.22-3.847,7.139-5.166,10.986-2.944
	l10.448,6.032c3.846,2.221,5.164,7.14,2.944,10.986C240.542,47.822,237.839,49.263,235.059,49.263z M156.826,31.957
	c-1.364,0-2.747-0.348-4.014-1.079c-3.846-2.221-5.164-7.14-2.944-10.986L155.9,9.443c2.22-3.847,7.139-5.163,10.986-2.945
	c3.846,2.222,5.164,7.141,2.944,10.987l-6.032,10.448C162.309,30.514,159.606,31.957,156.826,31.957z M196.751,27.146
	c-1.364,0-2.748-0.348-4.014-1.079l-10.447-6.032c-3.846-2.221-5.164-7.14-2.944-10.986c2.221-3.847,7.14-5.165,10.986-2.944
	l10.447,6.032c3.846,2.221,5.164,7.14,2.944,10.986C202.234,25.704,199.531,27.146,196.751,27.146z"/>
<g>
	<path style="fill:#D8D2DE;" d="M246.592,104.84h-17.104c-2.916-11.289-11.822-20.194-23.11-23.11V64.627
		c0-4.442-3.601-8.043-8.043-8.043s-8.043,3.601-8.043,8.043v17.104c-11.289,2.915-20.194,11.822-23.11,23.11H150.08
		c-4.442,0-8.043,3.601-8.043,8.043c0,4.442,3.601,8.043,8.043,8.043h17.104c2.916,11.289,11.822,20.194,23.11,23.11v17.104
		c0,4.442,3.601,8.043,8.043,8.043s8.043-3.601,8.043-8.043v-17.104c11.289-2.915,20.194-11.822,23.11-23.11h17.104
		c4.442,0,8.043-3.601,8.043-8.043C254.635,108.441,251.034,104.84,246.592,104.84z M198.336,128.968
		c-8.869,0-16.085-7.216-16.085-16.085s7.216-16.085,16.085-16.085c8.869,0,16.085,7.216,16.085,16.085
		S207.205,128.968,198.336,128.968z"/>
	<path style="fill:#D8D2DE;" d="M262.678,506.973c-83.696,0-161.366-41.664-207.766-111.451c-2.459-3.7-1.454-8.692,2.245-11.151
		c3.7-2.459,8.691-1.454,11.15,2.244c43.411,65.292,116.073,104.273,194.37,104.273c128.607,0,233.237-104.63,233.237-233.237
		c0-4.442,3.601-8.043,8.043-8.043s8.043,3.601,8.043,8.043c0,66.596-25.935,129.206-73.025,176.297
		S329.274,506.973,262.678,506.973z"/>
	<path style="fill:#D8D2DE;" d="M53.568,458.717c-4.442,0-8.043-3.601-8.043-8.043v-64.341c0-4.442,3.601-8.043,8.043-8.043h64.341
		c4.442,0,8.043,3.601,8.043,8.043s-3.601,8.043-8.043,8.043H61.611v56.299C61.611,455.116,58.01,458.717,53.568,458.717z"/>
</g>
<g>
</g>
<g>
</g>
<g>
</g>
<g>
</g>
<g>
</g>
<g>
</g>
<g>
</g>
<g>
</g>
<g>
</g>
<g>
</g>
<g>
</g>
<g>
</g>
<g>
</g>
<g>
</g>
<g>
</g>
</svg>
