<svg aria-hidden="true" style="position: absolute; width: 0; height: 0; overflow: hidden;" version="1.1" xmlns="http://www.w3.org/2000/svg" xmlns:xlink="http://www.w3.org/1999/xlink">
<defs>
<symbol id="icon-adobe" viewBox="0 0 32 32">
<path fill="#f00" style="fill: var(--color1, #f00)" d="M20.133 2.667h11.867v26.667zM11.867 2.667h-11.867v26.667zM16 12.533l7.467 16.8h-5.067l-2.133-5.333h-5.467z"></path>
</symbol>
<symbol id="icon-airbnb" viewBox="0 0 32 32">
<path fill="#ff5a5f" style="fill: var(--color2, #ff5a5f)" d="M15.997 24.356c-1.803-2.261-2.863-4.243-3.216-5.94-0.351-1.368-0.212-2.463 0.388-3.285 0.636-0.947 1.583-1.407 2.827-1.407s2.189 0.46 2.825 1.416c0.595 0.813 0.744 1.909 0.381 3.285-0.388 1.731-1.447 3.712-3.205 5.931zM28.793 25.876c-0.247 1.66-1.379 3.037-2.933 3.709-3.001 1.307-5.973-0.777-8.517-3.604 4.207-5.267 4.984-9.367 3.179-12.019-1.060-1.52-2.577-2.26-4.524-2.26-3.924 0-6.081 3.32-5.233 7.173 0.493 2.085 1.801 4.456 3.887 7.107-1.307 1.445-2.545 2.473-3.64 3.109-0.848 0.459-1.66 0.743-2.437 0.811-3.569 0.532-6.368-2.931-5.097-6.503 0.176-0.46 0.527-1.307 1.127-2.615l0.033-0.071c1.951-4.235 4.32-9.048 7.043-14.387l0.071-0.176 0.773-1.487c0.6-1.096 0.847-1.587 1.801-2.191 0.46-0.279 1.025-0.419 1.66-0.419 1.272 0 2.263 0.743 2.687 1.341 0.211 0.319 0.46 0.743 0.776 1.271l0.744 1.451 0.107 0.212c2.72 5.336 5.092 10.14 7.035 14.385l0.035 0.033 0.711 1.627 0.424 1.019c0.324 0.816 0.392 1.628 0.292 2.481zM30.419 22.691c-0.248-0.777-0.672-1.695-1.2-2.791v-0.040c-2.516-5.34-4.853-10.14-7.072-14.453l-0.148-0.216c-1.581-3.243-2.713-5.191-6.001-5.191-3.251 0-4.632 2.259-6.044 5.196l-0.108 0.213c-2.224 4.312-4.56 9.119-7.068 14.456v0.071l-0.744 1.625c-0.28 0.672-0.423 1.024-0.46 1.129-1.8 4.949 1.909 9.296 6.4 9.296 0.036 0 0.176 0 0.352-0.036h0.496c2.333-0.284 4.737-1.767 7.176-4.421 2.437 2.651 4.844 4.137 7.173 4.421h0.496c0.176 0.036 0.317 0.036 0.352 0.036 4.491 0.004 8.2-4.347 6.4-9.296z"></path>
</symbol>
<symbol id="icon-amazon" viewBox="0 0 32 32">
<path fill="#f90" style="fill: var(--color3, #f90)" d="M0.060 24.027c0.096-0.155 0.249-0.165 0.464-0.029 4.848 2.813 10.125 4.221 15.827 4.221 3.803 0 7.557-0.711 11.263-2.127l0.42-0.187c0.184-0.080 0.312-0.133 0.391-0.173 0.301-0.117 0.52-0.061 0.7 0.173 0.16 0.232 0.12 0.448-0.16 0.64-0.341 0.253-0.8 0.547-1.341 0.872-1.659 0.991-3.52 1.755-5.58 2.301-2.040 0.541-4.060 0.813-6.021 0.813-3.020 0-5.88-0.528-8.58-1.583-2.693-1.059-5.093-2.547-7.24-4.467-0.133-0.099-0.2-0.2-0.2-0.293 0-0.063 0.027-0.12 0.059-0.163zM8.813 15.736c0-1.34 0.329-2.484 0.991-3.436 0.66-0.947 1.56-1.667 2.72-2.153 1.061-0.447 2.341-0.767 3.883-0.96 0.52-0.061 1.377-0.137 2.56-0.232v-0.493c0-1.24-0.14-2.077-0.4-2.5-0.403-0.573-1.040-0.867-1.92-0.867h-0.243c-0.64 0.061-1.195 0.261-1.661 0.613-0.467 0.36-0.767 0.84-0.9 1.461-0.080 0.4-0.275 0.62-0.58 0.68l-3.36-0.42c-0.331-0.080-0.496-0.24-0.496-0.52 0-0.061 0.009-0.12 0.029-0.2 0.329-1.72 1.14-3 2.427-3.84 1.301-0.821 2.8-1.3 4.52-1.4h0.72c2.2 0 3.943 0.579 5.184 1.72 0.18 0.2 0.36 0.4 0.54 0.64 0.16 0.22 0.299 0.419 0.377 0.6 0.1 0.179 0.2 0.44 0.26 0.76 0.080 0.339 0.14 0.56 0.18 0.68 0.040 0.139 0.083 0.4 0.101 0.82 0.013 0.417 0.027 0.657 0.027 0.737v7.040c0 0.501 0.080 0.96 0.22 1.381 0.14 0.417 0.28 0.72 0.42 0.899l0.68 0.899c0.12 0.181 0.181 0.341 0.181 0.48 0 0.16-0.080 0.301-0.24 0.419-1.6 1.4-2.48 2.16-2.617 2.28-0.22 0.18-0.5 0.2-0.84 0.060-0.26-0.221-0.5-0.443-0.701-0.661l-0.413-0.463c-0.080-0.099-0.221-0.28-0.423-0.56l-0.4-0.58c-1.080 1.181-2.137 1.92-3.2 2.22-0.659 0.2-1.457 0.303-2.44 0.303-1.48 0-2.72-0.457-3.68-1.379-0.96-0.92-1.44-2.22-1.44-3.92zM13.817 15.152c0 0.755 0.187 1.36 0.567 1.819 0.38 0.453 0.9 0.683 1.54 0.683 0.060 0 0.141-0.009 0.26-0.027 0.12-0.021 0.179-0.031 0.221-0.031 0.819-0.213 1.44-0.737 1.899-1.571 0.22-0.373 0.38-0.773 0.48-1.213 0.12-0.427 0.16-0.787 0.18-1.067 0.020-0.26 0.020-0.72 0.020-1.34v-0.72c-1.12 0-1.979 0.080-2.56 0.24-1.7 0.48-2.56 1.56-2.56 3.24zM26.033 24.521c0.040-0.080 0.1-0.147 0.176-0.227 0.483-0.324 0.952-0.547 1.4-0.667 0.733-0.177 1.453-0.296 2.149-0.32 0.187-0.016 0.373 0 0.547 0.040 0.867 0.080 1.4 0.224 1.563 0.44 0.084 0.12 0.12 0.304 0.12 0.52v0.2c0 0.68-0.187 1.48-0.553 2.4-0.371 0.92-0.885 1.664-1.541 2.24-0.097 0.080-0.187 0.12-0.263 0.12-0.040 0-0.080 0-0.12-0.016-0.12-0.059-0.143-0.16-0.085-0.32 0.72-1.68 1.075-2.857 1.075-3.52 0-0.2-0.040-0.36-0.116-0.459-0.193-0.221-0.733-0.343-1.632-0.343-0.324 0-0.711 0.021-1.16 0.061-0.484 0.060-0.933 0.12-1.333 0.18-0.12 0-0.197-0.019-0.24-0.059-0.040-0.040-0.048-0.063-0.027-0.103 0-0.023 0.008-0.040 0.027-0.084z"></path>
</symbol>
<symbol id="icon-android" viewBox="0 0 32 32">
<path fill="#3ddc84" style="fill: var(--color4, #3ddc84)" d="M32 25.333h-32c0.344-3.051 1.396-5.801 2.988-8.158l-0.041 0.064c1.261-1.929 2.896-3.509 4.813-4.669l0.613-0.344-2.693-4.547c-0.062-0.101-0.099-0.223-0.099-0.353 0-0.244 0.129-0.459 0.323-0.579l0.003-0.002c0.098-0.059 0.216-0.094 0.342-0.094 0.246 0 0.461 0.133 0.576 0.331l0.002 0.003 2.773 4.667c1.849-0.76 3.995-1.201 6.244-1.201 0.074 0 0.147 0 0.221 0.001l-0.011-0c0.059-0.001 0.129-0.001 0.198-0.001 2.212 0 4.32 0.441 6.243 1.241l-0.108-0.040 2.76-4.667c0.118-0.199 0.331-0.331 0.576-0.331 0.133 0 0.256 0.039 0.36 0.106l-0.003-0.002c0.191 0.123 0.316 0.334 0.316 0.574 0 0.133-0.038 0.257-0.104 0.362l0.002-0.003-2.693 4.56 0.667 0.373c1.972 1.241 3.594 2.859 4.803 4.765l0.037 0.062c1.464 2.247 2.488 4.913 2.882 7.779l0.011 0.101zM22 19.36c0 0.736 0.597 1.333 1.333 1.333v0c0.736 0 1.333-0.597 1.333-1.333v0c0-0.736-0.597-1.333-1.333-1.333v0c-0.736 0-1.333 0.597-1.333 1.333v0zM7.333 19.36c0 0.736 0.597 1.333 1.333 1.333v0c0.736 0 1.333-0.597 1.333-1.333v0c0-0.736-0.597-1.333-1.333-1.333v0c-0.736 0-1.333 0.597-1.333 1.333v0z"></path>
</symbol>
<symbol id="icon-apple" viewBox="0 0 32 32">
<path fill="#999" style="fill: var(--color5, #999)" d="M9.437 31.4c-0.631-0.421-1.191-0.937-1.659-1.533-0.511-0.617-0.984-1.267-1.419-1.939-1.021-1.493-1.82-3.127-2.373-4.848-0.667-2.003-0.991-3.92-0.991-5.796 0-2.093 0.453-3.92 1.336-5.453 0.653-1.2 1.627-2.204 2.8-2.909 1.133-0.707 2.453-1.093 3.787-1.12 0.467 0 0.973 0.067 1.507 0.2 0.387 0.107 0.853 0.28 1.427 0.493 0.733 0.28 1.133 0.453 1.267 0.493 0.427 0.16 0.787 0.227 1.067 0.227 0.213 0 0.52-0.067 0.86-0.173 0.193-0.067 0.56-0.187 1.080-0.413 0.515-0.187 0.923-0.347 1.247-0.467 0.493-0.147 0.971-0.28 1.4-0.347 0.52-0.080 1.036-0.107 1.531-0.067 0.947 0.067 1.813 0.267 2.587 0.56 1.36 0.547 2.457 1.4 3.276 2.613-0.347 0.213-0.667 0.461-0.967 0.733-0.649 0.573-1.2 1.253-1.64 2.007-0.573 1.027-0.867 2.187-0.859 3.36 0.020 1.444 0.387 2.713 1.12 3.813 0.516 0.8 1.205 1.485 2.045 2.048 0.413 0.28 0.776 0.473 1.12 0.6-0.16 0.5-0.336 0.987-0.54 1.467-0.463 1.076-1.013 2.107-1.667 3.080-0.576 0.84-1.029 1.467-1.373 1.88-0.536 0.64-1.053 1.12-1.573 1.463-0.573 0.38-1.247 0.581-1.936 0.581-0.467 0.020-0.933-0.040-1.379-0.169-0.387-0.127-0.768-0.269-1.141-0.431-0.391-0.179-0.795-0.331-1.207-0.453-0.507-0.133-1.027-0.197-1.552-0.196-0.533 0-1.053 0.067-1.547 0.193-0.413 0.117-0.813 0.261-1.209 0.433-0.56 0.233-0.927 0.387-1.14 0.453-0.432 0.128-0.875 0.205-1.32 0.233-0.693 0-1.339-0.2-1.964-0.617zM18.576 6.787c-0.907 0.453-1.768 0.645-2.631 0.581-0.133-0.861 0-1.747 0.36-2.716 0.32-0.827 0.747-1.573 1.333-2.24 0.613-0.693 1.347-1.267 2.173-1.68 0.88-0.453 1.72-0.693 2.52-0.733 0.107 0.907 0 1.8-0.333 2.76-0.304 0.853-0.757 1.64-1.333 2.347-0.58 0.693-1.3 1.267-2.089 1.681z"></path>
</symbol>
<symbol id="icon-applepay" viewBox="0 0 32 32">
<path d="M5.851 11.045c-0.376 0.449-0.976 0.803-1.576 0.752-0.075-0.607 0.219-1.251 0.563-1.649 0.376-0.461 1.032-0.788 1.563-0.815 0.063 0.632-0.181 1.251-0.549 1.712zM6.393 11.917c-0.868-0.051-1.613 0.5-2.024 0.5-0.42 0-1.051-0.475-1.739-0.461-0.893 0.013-1.724 0.524-2.18 1.34-0.939 1.629-0.244 4.044 0.661 5.371 0.444 0.657 0.976 1.377 1.676 1.352 0.661-0.025 0.924-0.436 1.724-0.436 0.807 0 1.037 0.436 1.739 0.424 0.724-0.013 1.18-0.657 1.624-1.315 0.507-0.747 0.713-1.472 0.725-1.511-0.013-0.013-1.4-0.549-1.413-2.167-0.012-1.353 1.093-1.997 1.144-2.035-0.624-0.936-1.6-1.037-1.937-1.063zM11.413 10.085v9.852h1.513v-3.368h2.093c1.912 0 3.256-1.328 3.256-3.248 0-1.921-1.319-3.236-3.205-3.236zM12.927 11.375h1.744c1.312 0 2.061 0.707 2.061 1.952s-0.749 1.96-2.068 1.96h-1.739zM21.039 20.012c0.951 0 1.832-0.485 2.232-1.257h0.031v1.183h1.4v-4.904c0-1.421-1.125-2.339-2.856-2.339-1.607 0-2.793 0.929-2.837 2.205h1.363c0.112-0.607 0.668-1.004 1.431-1.004 0.925 0 1.444 0.436 1.444 1.239v0.543l-1.888 0.115c-1.756 0.107-2.707 0.833-2.707 2.097 0 1.276 0.981 2.123 2.388 2.123zM21.445 18.844c-0.807 0-1.32-0.392-1.32-0.992 0-0.62 0.495-0.98 1.439-1.037l1.68-0.107v0.556c0 0.923-0.773 1.58-1.799 1.58zM26.571 22.617c1.475 0 2.168-0.569 2.773-2.295l2.656-7.533h-1.537l-1.781 5.82h-0.031l-1.781-5.82h-1.581l2.561 7.173-0.137 0.436c-0.231 0.739-0.605 1.023-1.275 1.023-0.119 0-0.349-0.013-0.444-0.025v1.183c0.088 0.025 0.463 0.037 0.577 0.039z"></path>
</symbol>
<symbol id="icon-at-and-t" viewBox="0 0 32 32">
<path fill="#00a8e0" style="fill: var(--color6, #00a8e0)" d="M6.177 28.572c2.673 2.092 6.083 3.355 9.788 3.355 0.002 0 0.003 0 0.004 0h-0c4.035 0 7.713-1.497 10.52-3.957 0.035-0.029 0.019-0.049-0.015-0.029-1.26 0.84-4.851 2.677-10.505 2.677-4.913 0-8.019-1.096-9.772-2.075-0.033-0.017-0.045 0.008-0.020 0.029zM17.053 29.388c3.931 0 8.249-1.072 10.832-3.192 0.707-0.579 1.38-1.347 1.983-2.38 0.347-0.595 0.687-1.301 0.963-1.996 0.013-0.033-0.008-0.051-0.033-0.013-2.403 3.536-9.357 5.74-16.539 5.74-5.076 0-10.539-1.623-12.677-4.723-0.021-0.028-0.041-0.016-0.029 0.016 1.992 4.235 8.036 6.547 15.501 6.547zM12.76 22.364c-8.173 0-12.027-3.807-12.727-6.405-0.008-0.037-0.033-0.029-0.033 0.005 0 0.873 0.088 2.003 0.239 2.752 0.071 0.364 0.368 0.936 0.803 1.393 1.98 2.063 6.915 4.953 15.46 4.953 11.643 0 14.305-3.879 14.848-5.155 0.389-0.912 0.591-2.56 0.591-3.944 0-0.336-0.008-0.603-0.021-0.867 0-0.043-0.024-0.045-0.033-0.004-0.581 3.12-10.529 7.271-19.125 7.271zM1.54 9.115c-0.469 0.929-0.987 2.499-1.143 3.309-0.067 0.347-0.039 0.515 0.084 0.773 0.979 2.080 5.933 5.405 17.493 5.405 7.052 0 12.529-1.733 13.417-4.893 0.163-0.583 0.172-1.197-0.039-2.025-0.235-0.925-0.673-2.004-1.045-2.761-0.013-0.025-0.033-0.021-0.029 0.008 0.137 4.147-11.425 6.819-17.26 6.819-6.32 0-11.592-2.517-11.592-5.697 0-0.305 0.064-0.611 0.143-0.928 0.008-0.029-0.017-0.035-0.029-0.009zM26.516 4.024c0.067 0.105 0.101 0.217 0.101 0.368 0 1.773-5.429 4.912-14.071 4.912-6.349 0-7.537-2.356-7.537-3.853 0-0.536 0.205-1.084 0.657-1.64 0.024-0.033 0.004-0.045-0.025-0.021-0.828 0.705-1.565 1.47-2.221 2.301l-0.026 0.034c-0.319 0.401-0.516 0.757-0.516 0.971 0 3.104 7.784 5.355 15.063 5.355 7.755 0 11.216-2.532 11.216-4.756 0-0.795-0.309-1.26-1.101-2.16-0.515-0.585-1-1.061-1.515-1.531-0.025-0.020-0.043-0.004-0.025 0.021zM24.139 2.251c-2.319-1.414-5.125-2.251-8.126-2.251-0.015 0-0.031 0-0.046 0h0.002c-3.016 0-5.88 0.844-8.281 2.317-0.72 0.443-1.127 0.799-1.127 1.256 0 1.347 3.147 2.793 8.731 2.793 5.524 0 9.809-1.587 9.809-3.112 0-0.364-0.319-0.619-0.963-1.004z"></path>
</symbol>
<symbol id="icon-audi" viewBox="0 0 32 32">
<path fill="#bb0a30" style="fill: var(--color7, #bb0a30)" d="M26.464 10.464c-1.323 0-2.536 0.464-3.488 1.237-0.952-0.773-2.165-1.237-3.488-1.237s-2.536 0.464-3.488 1.237c-0.952-0.773-2.165-1.237-3.488-1.237s-2.536 0.464-3.488 1.237c-0.952-0.773-2.165-1.237-3.488-1.237-3.057 0-5.536 2.479-5.536 5.536s2.479 5.536 5.536 5.536c1.323 0 2.536-0.464 3.488-1.237 0.952 0.773 2.165 1.237 3.488 1.237s2.536-0.464 3.488-1.237c0.952 0.773 2.165 1.237 3.488 1.237s2.536-0.464 3.488-1.237c0.952 0.773 2.165 1.237 3.488 1.237 3.057 0 5.536-2.479 5.536-5.536s-2.479-5.536-5.536-5.536zM22.976 18.488c-0.501-0.701-0.797-1.56-0.797-2.488s0.296-1.787 0.797-2.488c0.501 0.701 0.797 1.56 0.797 2.488s-0.296 1.787-0.797 2.488zM16 18.488c-0.501-0.701-0.797-1.56-0.797-2.488s0.296-1.787 0.797-2.488c0.501 0.701 0.797 1.56 0.797 2.488s-0.296 1.787-0.797 2.488zM9.024 18.488c-0.501-0.701-0.797-1.56-0.797-2.488s0.296-1.787 0.797-2.488c0.501 0.701 0.797 1.56 0.797 2.488s-0.296 1.787-0.797 2.488zM1.251 16c0-2.367 1.919-4.285 4.285-4.285 0.981 0 1.885 0.331 2.608 0.887-0.731 0.937-1.168 2.117-1.168 3.399s0.437 2.461 1.168 3.399c-0.723 0.555-1.627 0.887-2.608 0.887-2.367 0-4.285-1.919-4.285-4.285zM9.904 19.399c0.731-0.937 1.168-2.117 1.168-3.399s-0.437-2.461-1.168-3.399c0.723-0.555 1.627-0.887 2.608-0.887s1.885 0.331 2.608 0.887c-0.732 0.939-1.168 2.117-1.168 3.399s0.437 2.461 1.168 3.399c-0.723 0.555-1.627 0.887-2.608 0.887s-1.885-0.331-2.608-0.887zM16.88 19.399c0.732-0.939 1.168-2.117 1.168-3.399s-0.437-2.461-1.168-3.4c0.723-0.555 1.627-0.887 2.608-0.887s1.885 0.331 2.608 0.887c-0.732 0.939-1.168 2.117-1.168 3.399s0.437 2.461 1.168 3.399c-0.723 0.555-1.627 0.887-2.608 0.887-0.981 0.001-1.885-0.329-2.608-0.885zM26.464 20.285c-0.981 0-1.885-0.331-2.608-0.887 0.731-0.939 1.168-2.117 1.168-3.399s-0.437-2.461-1.168-3.399c0.723-0.555 1.627-0.887 2.608-0.887 2.367 0 4.285 1.919 4.285 4.285s-1.919 4.285-4.285 4.285z"></path>
</symbol>
<symbol id="icon-bitcoin" viewBox="0 0 32 32">
<path fill="#f7931a" style="fill: var(--color8, #f7931a)" d="M31.517 19.872c-2.136 8.573-10.817 13.787-19.389 11.648-8.568-2.12-13.787-10.82-11.645-19.38 2.133-8.58 10.817-13.797 19.384-11.663 8.573 2.14 13.789 10.82 11.651 19.397zM23.051 13.721c0.32-2.12-1.299-3.267-3.52-4.040l0.72-2.871-1.753-0.44-0.7 2.809c-0.46-0.116-0.94-0.223-1.419-0.333l0.701-2.836-1.76-0.44-0.72 2.887c-0.38-0.089-0.753-0.176-1.12-0.267l-2.42-0.6-0.467 1.876c0 0 1.3 0.3 1.273 0.315 0.713 0.181 0.84 0.648 0.82 1.021l-1.969 7.893c-0.1 0.221-0.32 0.541-0.819 0.419 0.020 0.027-1.28-0.32-1.28-0.32l-0.88 2.013 2.28 0.568 1.24 0.323-0.72 2.92 1.76 0.436 0.72-2.893c0.48 0.133 0.94 0.253 1.4 0.364l-0.68 2.872 1.76 0.44 0.727-2.92c2.987 0.569 5.24 0.343 6.187-2.365 0.76-2.183-0.040-3.44-1.623-4.261 1.139-0.257 2-1.013 2.24-2.573zM19.037 19.348c-0.539 2.187-4.209 1-5.4 0.707l0.96-3.867c1.195 0.307 5.009 0.893 4.44 3.16zM19.584 13.695c-0.493 1.987-3.549 0.98-4.54 0.733l0.872-3.52c0.992 0.24 4.183 0.699 3.667 2.779z"></path>
</symbol>
<symbol id="icon-buddy" viewBox="0 0 32 32">
<path fill="#1a86fd" style="fill: var(--color9, #1a86fd)" d="M28.933 7.076l-11.671-6.739c-0.362-0.212-0.797-0.338-1.261-0.338s-0.899 0.125-1.273 0.344l0.012-0.006-11.675 6.737c-0.759 0.444-1.26 1.256-1.26 2.184 0 0 0 0 0 0v0 13.479c0 0.9 0.48 1.733 1.26 2.183l11.675 6.741c0.361 0.212 0.796 0.337 1.26 0.337s0.898-0.125 1.272-0.344l-0.012 0.006 11.675-6.74c0.78-0.451 1.26-1.283 1.26-2.184v-13.477c0-0.9-0.48-1.733-1.263-2.184zM19 17.412l-5.072 5.072-1.801-1.801 5.072-5.073-5.072-5.073 1.801-1.8 6.873 6.873z"></path>
</symbol>
<symbol id="icon-cashapp" viewBox="0 0 32 32">
<path fill="#00c244" style="fill: var(--color10, #00c244)" d="M31.453 4.627c-0.703-1.895-2.171-3.364-4.020-4.051l-0.047-0.015c-1.747-0.56-3.333-0.56-6.56-0.56h-9.68c-3.2 0-4.813 0-6.533 0.533-1.898 0.706-3.367 2.179-4.051 4.033l-0.015 0.047c-0.547 1.733-0.547 3.333-0.547 6.533v9.693c0 3.213 0 4.8 0.533 6.533 0.703 1.895 2.171 3.364 4.020 4.051l0.047 0.015c1.733 0.547 3.333 0.547 6.533 0.547h9.707c3.213 0 4.813 0 6.533-0.533 1.903-0.703 3.377-2.177 4.065-4.033l0.015-0.047c0.547-1.733 0.547-3.333 0.547-6.533v-9.667c0-3.213 0-4.813-0.547-6.547zM23.227 10.8l-1.24 1.24c-0.119 0.111-0.278 0.179-0.454 0.179-0.169 0-0.323-0.063-0.44-0.166l0.001 0.001c-1.151-0.977-2.652-1.571-4.293-1.573h-0c-1.293 0-2.587 0.427-2.587 1.613 0 1.2 1.387 1.6 2.987 2.2 2.8 0.933 5.12 2.107 5.12 4.853 0 2.987-2.32 5.040-6.107 5.267l-0.347 1.6c-0.064 0.299-0.326 0.52-0.64 0.52-0 0-0 0-0 0h-2.387l-0.12-0.013c-0.3-0.069-0.521-0.334-0.521-0.651 0-0.048 0.005-0.095 0.015-0.141l-0.001 0.004 0.373-1.693c-1.499-0.384-2.794-1.112-3.845-2.098l0.005 0.004v-0.013c-0.116-0.116-0.188-0.276-0.188-0.453s0.072-0.337 0.188-0.453l0-0 1.333-1.293c0.117-0.109 0.274-0.177 0.447-0.177s0.33 0.067 0.447 0.177l-0-0c1.213 1.147 2.84 1.787 4.52 1.76 1.733 0 2.893-0.733 2.893-1.893s-1.173-1.467-3.387-2.293c-2.347-0.84-4.573-2.027-4.573-4.8 0-3.227 2.68-4.8 5.853-4.947l0.333-1.64c0.064-0.292 0.32-0.507 0.626-0.507 0.005 0 0.010 0 0.015 0h2.373l0.133 0.013c0.347 0.080 0.573 0.413 0.493 0.76l-0.36 1.827c1.2 0.4 2.333 1.027 3.307 1.853l0.027 0.027c0.253 0.267 0.253 0.667 0 0.907z"></path>
</symbol>
<symbol id="icon-codecademy" viewBox="0 0 32 32">
<path fill="#1f4056" style="fill: var(--color11, #1f4056)" d="M31.769 26.307h-7.46c-0.125 0-0.227 0.077-0.227 0.229v2.020c0 0.125 0.077 0.227 0.229 0.227h7.459c0.128 0 0.229-0.059 0.229-0.219v-2.020c0-0.14-0.076-0.221-0.231-0.221v-0.019zM21.951 3.287c0.021 0.047 0.040 0.091 0.063 0.16v25.053c0 0.081-0.027 0.128-0.049 0.152-0.041 0.049-0.103 0.080-0.172 0.080-0.003 0-0.006-0-0.009-0h-21.58c-0.051 0-0.1 0-0.129-0.027-0.046-0.044-0.075-0.106-0.075-0.175 0-0.001 0-0.003 0-0.004v0-25.105c0-0.101 0.053-0.179 0.128-0.2h21.656c0.053 0 0.128 0.023 0.153 0.045v0.021zM2.424 26.1c0 0.097 0.051 0.181 0.128 0.204h16.857c0.077-0.025 0.128-0.101 0.128-0.205v-20.227c0-0.097-0.052-0.179-0.131-0.2h-16.853c-0.075 0.027-0.128 0.097-0.128 0.2l-0.004 20.227zM9.323 14.935c0.867 0 1.352 0.236 1.861 0.825 0.077 0.1 0.204 0.125 0.307 0.047l1.379-1.227c0.1-0.059 0.077-0.219 0.027-0.299-0.847-1.019-2.072-1.659-3.653-1.659-2.12 0-3.72 1.060-4.34 2.941-0.22 0.66-0.32 1.501-0.32 2.639 0 1.14 0.1 1.979 0.34 2.64 0.62 1.901 2.22 2.94 4.34 2.94 1.6 0 2.82-0.64 3.66-1.621 0.060-0.099 0.080-0.22-0.020-0.301l-1.383-1.22c-0.097-0.063-0.217-0.063-0.299 0.036-0.52 0.6-1.060 0.92-1.939 0.92-0.941 0-1.66-0.46-1.96-1.38-0.181-0.52-0.221-1.16-0.221-1.977 0-0.82 0.060-1.424 0.24-1.961 0.32-0.879 1.021-1.343 1.981-1.343z"></path>
</symbol>
<symbol id="icon-discord" viewBox="0 0 32 32">
<path fill="#7289da" style="fill: var(--color12, #7289da)" d="M26.963 0c1.875 0 3.387 1.516 3.476 3.3v28.7l-3.569-3.031-1.96-1.784-2.139-1.864 0.893 2.94h-18.717c-1.869 0-3.387-1.42-3.387-3.301v-21.653c0-1.784 1.52-3.303 3.393-3.303h22zM18.805 7.577h-0.040l-0.269 0.267c2.764 0.8 4.101 2.049 4.101 2.049-1.781-0.891-3.387-1.336-4.992-1.516-1.16-0.18-2.32-0.085-3.3 0h-0.267c-0.627 0-1.96 0.267-3.747 0.98-0.623 0.271-0.98 0.448-0.98 0.448s1.336-1.336 4.28-2.049l-0.18-0.18c0 0-2.229-0.085-4.636 1.693 0 0-2.407 4.192-2.407 9.36 0 0 1.333 2.32 4.991 2.408 0 0 0.533-0.711 1.073-1.336-2.053-0.624-2.853-1.872-2.853-1.872s0.179 0.088 0.447 0.267h0.080c0.040 0 0.059 0.020 0.080 0.040v0.008c0.021 0.021 0.040 0.040 0.080 0.040 0.44 0.181 0.88 0.36 1.24 0.533 0.621 0.269 1.42 0.537 2.4 0.715 1.24 0.18 2.661 0.267 4.28 0 0.8-0.18 1.6-0.356 2.4-0.713 0.52-0.267 1.16-0.533 1.863-0.983 0 0-0.8 1.248-2.94 1.872 0.44 0.621 1.060 1.333 1.060 1.333 3.659-0.080 5.080-2.4 5.16-2.301 0-5.16-2.42-9.36-2.42-9.36-2.18-1.619-4.22-1.68-4.58-1.68zM19.029 13.461c0.937 0 1.693 0.8 1.693 1.78 0 0.987-0.76 1.787-1.693 1.787s-1.693-0.8-1.693-1.779c0.003-0.987 0.764-1.784 1.693-1.788zM12.972 13.461c0.933 0 1.688 0.8 1.688 1.78 0 0.987-0.76 1.787-1.693 1.787s-1.693-0.8-1.693-1.779c0-0.987 0.76-1.784 1.699-1.788z"></path>
</symbol>
<symbol id="icon-dropbox" viewBox="0 0 32 32">
<path fill="#0061ff" style="fill: var(--color13, #0061ff)" d="M8 2.409l-8 5.096 8 5.096 8.001-5.096zM24 2.409l-8 5.096 8 5.096 8-5.096zM0 17.699l8 5.096 8.001-5.096-8.001-5.096zM24 12.603l-8 5.096 8 5.096 8-5.096zM8 24.495l8.001 5.096 8-5.096-8-5.096z"></path>
</symbol>
<symbol id="icon-grav" viewBox="0 0 32 32">
<path d="M16 0c-8.836 0-16 7.164-16 16s7.164 16 16 16 16-7.164 16-16-7.164-16-16-16zM24.652 18.62c-1.668-1.1-2.62-2.031-3.452-3.703-0.569 1.145-1.895 2.847-4.131 4.185-1.12 3.48-6.431 10.14-8.151 9.18-0.508-0.26-0.603-0.64-0.489-1.020 0.124-0.939 2.088-3.12 2.088-3.12s0.039 0.46 0.659 1.42c-0.839-2.581 1.361-5.74 1.941-6.841 0.919-0.279 0.979-1.46 0.979-1.46 0.061-1.819-0.759-3.12-1.54-3.92 0.561 0.7 0.741 1.741 0.76 2.7v0.34c-0.039 0.801-0.28 1.88-0.78 1.88v0.021c-0.52-0.021-1.18 0.099-1.759 0.28l-1.281 0.319c0 0 0.68-0.020 1.040 0.301-0.419 0.68-1.34 1.5-2.361 1.979-1.479 0.7-1.919-0.68-1.159-1.56 0.18-0.22 0.38-0.4 0.539-0.539-0.12-0.12-0.18-0.28-0.199-0.48-0.1-0.46-0.060-1.040 0.6-1.98 0.12-0.199 0.28-0.4 0.46-0.599l0.020-0.021 0.021-0.020v-0.020c0.039-0.061 0.099-0.101 0.139-0.16 0.76-0.78 1.98-1.6 3.881-2.32 2.259-3.32 3.079-3.941 3.079-3.941 0.241-0.239 0.681-0.559 0.82-0.639-1.16-2.020-1.399-4.861-1.099-5.62-0.040 0.040-0.061 0.080-0.081 0.14 0.12-0.26 0.18-0.34 0.3-0.48 0.32-0.36 1.38-0.56 1.781 0.24 0.2 0.42 0.24 0.98 0.24 1.38-0.86-0.039-1.62 0.92-1.62 0.92s0.699-0.32 1.581-0.34c0 0 0.239 0.219 0.519 0.599-0.379 0.741-1.039 2.3-0.56 3.961 0.081 0.32 0.2 0.6 0.341 0.839 0.020 0.021 0.020 0.021 0.020 0.041l0.040 0.039c0.78 1.181 2.199 1.301 2.199 1.301-0.66-0.32-1.22-0.861-1.559-1.5-0.181-0.34-0.303-0.64-0.361-0.861-0.38-1.44 0.18-2.3 0.5-2.86 0.72-1.12 2.059-1.801 3.479-1.64 2 0.22 3.441 2.040 3.199 4.040-0.139 1.22-0.879 2.241-1.879 2.78 0.241 0.659-0.020 1.44-0.020 1.44 0.599 0.76 0.639 1.2 0.62 1.62-0.78-0.12-1.521 0.401-1.521 0.401s1.481-0.341 2.341 0.419c0.56 0.599 0.939 1.16 1.159 1.56 0.32 0.58 1.8 0.62 1.639 1.64-0.18 1.039-1.319 1.039-3.080-0.12zM18.22 12.473c-0.293-0.292-0.765-0.292-1.060 0l-0.62 0.624c-0.296 0.28-0.296 0.76 0 1.061l0.68 0.68c0.296 0.3 0.769 0.28 1.060 0l0.627-0.621c0.295-0.3 0.295-0.78 0-1.059l-0.687-0.7zM15.28 12.225c-0.187 0.187-0.187 0.491 0 0.681 0.188 0.184 0.491 0.184 0.68 0 0.187-0.191 0.187-0.495 0-0.681-0.189-0.188-0.492-0.188-0.68 0zM16.972 11.889c0.189-0.185 0.189-0.488 0-0.68-0.188-0.184-0.489-0.184-0.68 0-0.185 0.192-0.185 0.495 0 0.68 0.189 0.189 0.492 0.189 0.68 0zM24.152 10.151c0.788-1.508-0.329-2.388-1.1-3.109-1.232-1.16-2.461-1.66-3.867-0.039-1.403 1.599-0.511 3.479 0.773 4.379 1.28 0.92 3.38 0.301 4.18-1.22zM22.025 9.533c-0.496-0.593 0.429-1.669 1.009-1.027 1.067 1.187-0.516 1.621-1.009 1.027z"></path>
</symbol>
<symbol id="icon-gulp" viewBox="0 0 32 32">
<path fill="#da4648" style="fill: var(--color14, #da4648)" d="M20.208 25.909l0.848-1.445c0 0-1.925 0.788-5.147 0.788-3.224 0-5.12-0.757-5.12-0.757l0.948 1.577 0.336 4.972c0 0.537 1.752 0.957 3.915 0.957 2.164 0 3.917-0.419 3.917-0.957l0.305-5.113zM21.028 16.515c-1.025 0.061-1.537 1.204-2.052 2.407-0.191 0.44-0.84 2.316-1.264 2.084-0.424-0.231 0.551-1.772 0.825-2.689-0.316 0.232-1.473 1.132-1.772 0.287-0.477 0.419-1.505 0.64-1.389-0.439-0.255 0.46-0.828 1.097-1.519 0.819-0.897-0.34 0.527-3.215 0.88-3.076 0.355 0.161-0.071 0.8-0.181 1.059-0.248 0.559-0.531 1.277-0.34 1.417 0.32 0.259 1.205-0.937 1.225-0.959 0.165-0.22 0.639-1.639 1.017-1.476 0.38 0.179-0.948 2.055-0.453 2.435 0.101 0.080 0.511-0.040 0.759-0.319 0.16-0.16 0.104-0.56 0.639-1.837 0.539-1.279 1.019-2.875 1.385-2.755s0.065 0.937-0.068 1.257c-0.619 1.437-1.691 3.792-1.187 3.613 0.499-0.18 0.759-0.18 1.257-0.759s0.46-1.536 0.799-1.516c0.32 0.019 0.28 0.339 0.2 0.557 0.32-0.36 1.536-1.157 1.817-0.379 0.339 0.917-1.739 2.256-1.219 2.176 0.5-0.060 1.317-0.579 1.677-1.057l0.959-8.667c0 0-0.979 0.8-7.148 0.8s-7.045-0.779-7.045-0.779l0.817 7.907c0.44-1.237 1.477-3.752 3.096-3.653 0.739 0.040 1.737 1.479 0.877 1.519-0.36 0.020-0.4-0.719-0.819-0.819-0.319-0.061-0.739 0.18-1.017 0.46-0.539 0.539-1.739 2.675-1.579 3.735 0.2 1.357 1.876-0.461 2.156-1 0.199-0.377 0.339-1.517 0.757-1.397 0.44 0.12-0.039 1.299-0.36 2.316-0.36 1.159-0.539 2.375-0.976 2.235-0.44-0.139 0.279-1.636 0.237-1.896-0.417 0.399-1.177 1.36-2.175 0.879l0.499 4.932c0 0 1.359 1.057 5.431 1.057s5.491-1.057 5.491-1.057l0.639-5.711c-0.519 0.52-2.156 1.417-2.256 0.4-0.079-0.819 1.777-1.997 1.299-2.019zM23.128 0.892l-3.545 3.733-0.648 2.535c2.508 0.16 4.252 0.515 4.252 0.925 0 0.559-3.219 1.009-7.188 1.009s-7.187-0.457-7.187-1.017c0-0.559 3.219-1.019 7.188-1.019 0.564 0 1.125 0 1.685 0.021l0.748-3.035 3.767-3.993c0.091-0.12 0.373-0.020 0.632 0.2 0.259 0.199 0.399 0.459 0.319 0.579v0.040zM18.016 8.619c0 0-0.697 0-0.813-0.107-0.029-0.033-0.048-0.077-0.048-0.12 0-0.077 0.052-0.121 0.12-0.147l0.059 0.1c-0.028 0.008-0.039 0.020-0.044 0.031 0 0.055 0.419 0.092 0.74 0.088 0.319-0.004 0.708-0.031 0.711-0.085 0-0.016-0.031-0.031-0.081-0.044l0.060-0.096c0.084 0.027 0.156 0.077 0.156 0.161 0 0.147-0.188 0.171-0.307 0.188-0.143 0.020-0.549 0.031-0.549 0.031z"></path>
</symbol>
<symbol id="icon-ibm" viewBox="0 0 32 32">
<path fill="#054ada" style="fill: var(--color15, #054ada)" d="M0 21.525h6.223v0.891h-6.223zM0 19.816h6.223v0.893h-6.223zM1.773 18.111h2.671v0.895h-2.671zM1.773 16.407h2.671v0.893h-2.671zM1.773 14.7h2.671v0.895h-2.671zM1.773 12.992h2.671v0.895h-2.671zM0 11.288h6.223v0.893h-6.223zM0 9.583h6.223v0.893h-6.223zM7.109 20.709h9.569c0.16-0.275 0.283-0.577 0.356-0.893h-9.924zM15.933 16.407h-7.044v0.893h7.791c-0.205-0.345-0.454-0.64-0.742-0.89l-0.005-0.004zM8.888 14.7v0.895h7.047c0.297-0.251 0.547-0.552 0.745-0.895zM16.679 11.288h-9.569v0.893h9.924c-0.089-0.34-0.21-0.637-0.365-0.913l0.010 0.020zM13.737 9.583h-6.628v0.893h8.913c-0.598-0.554-1.4-0.893-2.283-0.893-0.001 0-0.002 0-0.003 0h0zM8.888 12.992h2.667v0.895h-2.667zM14.223 13.887h2.789c0.079-0.285 0.12-0.587 0.12-0.895h-2.909zM8.888 18.111h2.665v0.895h-2.667zM14.223 18.111v0.895h2.909c0-0.307-0.041-0.609-0.12-0.895zM7.109 22.409l6.627 0.009c0.889 0 1.691-0.343 2.289-0.893h-8.916zM17.779 21.525h4.443v0.891h-4.443zM17.779 19.816h4.443v0.893h-4.443zM19.553 18.111h2.667v0.895h-2.667zM19.553 16.407h2.667v0.893h-2.667zM23.459 11.288h-5.68v0.893h5.987zM22.869 9.583h-5.091v0.892h5.397zM27.553 21.525h4.447v0.891h-4.447zM27.553 19.816h4.447v0.893h-4.447zM27.553 18.111h2.667v0.895h-2.667zM27.553 16.407h2.667v0.893h-2.667zM27.553 15.595h2.667v-0.895h-5.081l-0.251 0.723-0.251-0.723h-5.084v0.895h2.667v-0.821l0.284 0.821h4.767l0.283-0.821zM30.221 12.992h-4.493l-0.307 0.895h4.8zM26.911 9.583l-0.308 0.892h5.397v-0.892zM24.888 22.409l0.307-0.884h-0.615zM24.299 20.709h1.179l0.317-0.893h-1.809zM23.7 19.005h2.376l0.313-0.895h-3.004zM23.103 17.3h3.572l0.305-0.893h-4.184zM19.553 13.887h4.803l-0.308-0.895h-4.495zM26.013 12.181h5.987v-0.893h-5.683z"></path>
</symbol>
<symbol id="icon-instagram" viewBox="0 0 32 32">
<path fill="#e4405f" style="fill: var(--color16, #e4405f)" d="M16 0c-4.347 0-4.889 0.020-6.596 0.096-1.704 0.080-2.864 0.348-3.884 0.744-1.052 0.408-1.945 0.956-2.835 1.845s-1.439 1.781-1.845 2.835c-0.396 1.020-0.665 2.18-0.744 3.884-0.080 1.707-0.096 2.249-0.096 6.596s0.020 4.889 0.096 6.596c0.080 1.703 0.348 2.864 0.744 3.884 0.408 1.051 0.956 1.945 1.845 2.835 0.889 0.888 1.781 1.439 2.835 1.845 1.021 0.395 2.181 0.665 3.884 0.744 1.707 0.080 2.249 0.096 6.596 0.096s4.889-0.020 6.596-0.096c1.703-0.080 2.864-0.349 3.884-0.744 1.051-0.408 1.945-0.957 2.835-1.845 0.888-0.889 1.439-1.78 1.845-2.835 0.395-1.020 0.665-2.181 0.744-3.884 0.080-1.707 0.096-2.249 0.096-6.596s-0.020-4.889-0.096-6.596c-0.080-1.703-0.349-2.865-0.744-3.884-0.408-1.052-0.957-1.945-1.845-2.835-0.889-0.889-1.78-1.439-2.835-1.845-1.020-0.396-2.181-0.665-3.884-0.744-1.707-0.080-2.249-0.096-6.596-0.096zM16 2.88c4.271 0 4.78 0.021 6.467 0.095 1.56 0.073 2.407 0.332 2.969 0.553 0.749 0.289 1.28 0.636 1.843 1.195 0.559 0.56 0.905 1.092 1.195 1.841 0.219 0.563 0.48 1.409 0.551 2.969 0.076 1.688 0.093 2.195 0.093 6.467s-0.020 4.78-0.099 6.467c-0.081 1.56-0.341 2.407-0.561 2.969-0.299 0.749-0.639 1.28-1.199 1.843-0.559 0.559-1.099 0.905-1.84 1.195-0.56 0.219-1.42 0.48-2.98 0.551-1.699 0.076-2.199 0.093-6.479 0.093-4.281 0-4.781-0.020-6.479-0.099-1.561-0.081-2.421-0.341-2.981-0.561-0.759-0.299-1.28-0.639-1.839-1.199-0.561-0.559-0.92-1.099-1.2-1.84-0.22-0.56-0.479-1.42-0.56-2.98-0.060-1.68-0.081-2.199-0.081-6.459 0-4.261 0.021-4.781 0.081-6.481 0.081-1.56 0.34-2.419 0.56-2.979 0.28-0.76 0.639-1.28 1.2-1.841 0.559-0.559 1.080-0.919 1.839-1.197 0.56-0.221 1.401-0.481 2.961-0.561 1.7-0.060 2.2-0.080 6.479-0.080zM16 7.784c-4.54 0-8.216 3.68-8.216 8.216 0 4.54 3.68 8.216 8.216 8.216 4.54 0 8.216-3.68 8.216-8.216 0-4.54-3.68-8.216-8.216-8.216zM16 21.333c-2.947 0-5.333-2.387-5.333-5.333s2.387-5.333 5.333-5.333 5.333 2.387 5.333 5.333-2.387 5.333-5.333 5.333zM26.461 7.46c0 1.060-0.861 1.92-1.92 1.92-1.060 0-1.92-0.861-1.92-1.92s0.861-1.919 1.92-1.919c1.057-0.001 1.92 0.86 1.92 1.919z"></path>
</symbol>
<symbol id="icon-lyft" viewBox="0 0 32 32">
<path fill="#ff00bf" style="fill: var(--color17, #ff00bf)" d="M32 14.829v-4.683h-1.671c-0.699-3.68-4.565-6.1-8.453-4.644-2.165 0.808-3.925 3.395-3.925 5.709v10.641h0.187c0.004 0 0.004 0 0.008 0s0.004 0 0.008 0c1.205-0.051 2.333-0.561 3.173-1.436 0.843-0.879 1.308-2.029 1.308-3.243h1.951v-4.687h-1.951v-1.288c0-0.5 0.265-0.968 0.703-1.209 1.199-0.668 2.42 0.191 2.42 1.327v4.293c0 1.697 0.64 3.275 1.803 4.441 1.112 1.112 2.619 1.752 4.239 1.803 0 0 0.004 0 0.004 0s0 0 0.004 0v0h0.191v-4.683c0 0 0 0 0 0-0.875-0.004-1.561-0.707-1.561-1.561v-0.78zM4.683 17.951v-12.488h-4.683v11.707c0 3.216 2.123 4.683 4.097 4.683v0c0.589 0 1.179-0.136 1.705-0.383 0.079-0.035 0.203-0.113 0.203-0.113s-0.117-0.125-0.168-0.18c-0.749-0.855-1.155-1.963-1.155-3.225zM12.097 16.5c0 0.195-0.093 0.383-0.253 0.492-0.628 0.441-1.308-0.004-1.308-0.601v-6.244h-4.683v7.805c0 2.151 1.752 3.903 3.903 3.903 0.929 0 1.831-0.332 2.536-0.936-0.075 0.577-0.391 1.053-0.921 1.385-0.496 0.312-1.144 0.476-1.869 0.476-0.749 0-1.511-0.176-2.201-0.507 0 0-0.125-0.059-0.281-0.148v4.16c1.041 0.421 2.185 0.644 3.289 0.644 1.748 0 3.344-0.547 4.496-1.541 1.292-1.112 1.975-2.74 1.975-4.703v-10.536h-4.683z"></path>
</symbol>
<symbol id="icon-mercedes" viewBox="0 0 32 32">
<path d="M16.007 0c8.831 0 16 7.169 16 16s-7.169 16-16 16-16-7.169-16-16 7.169-16 16-16zM4.333 23.385c2.487 3.888 6.782 6.428 11.671 6.428 0.001 0 0.002 0 0.002 0h-0c4.908 0 9.223-2.565 11.673-6.428l-11.673-4.448zM18.551 14.531l9.689 7.887c0.995-1.855 1.58-4.058 1.58-6.397 0-0.007 0-0.014-0-0.021v0.001c0-7.436-5.889-13.508-13.253-13.803zM15.447 2.197c-7.364 0.295-13.253 6.367-13.253 13.803 0 2.316 0.571 4.499 1.58 6.417l9.689-7.887z"></path>
</symbol>
<symbol id="icon-monster" viewBox="0 0 32 32">
<path fill="#6e46ae" style="fill: var(--color18, #6e46ae)" d="M0 0v32h7.227v-15.48l8.773 7.733 8.773-7.733v15.48h7.227v-32l-16 14.973z"></path>
</symbol>
<symbol id="icon-sass" viewBox="0 0 32 32">
<path fill="#c69" style="fill: var(--color19, #c69)" d="M16 0c8.836 0 16 7.164 16 16s-7.164 16-16 16-16-7.164-16-16 7.164-16 16-16zM12.82 21.331c0.233 0.86 0.208 1.664-0.032 2.389l-0.087 0.24c-0.032 0.081-0.069 0.16-0.104 0.235-0.187 0.387-0.435 0.747-0.74 1.080-0.931 1.012-2.229 1.396-2.787 1.073-0.6-0.349-0.301-1.78 0.779-2.92 1.161-1.224 2.827-2.012 2.827-2.012v-0.004zM26.035 6.849c-0.723-2.844-5.436-3.779-9.896-2.193-2.652 0.943-5.525 2.424-7.591 4.356-2.457 2.295-2.848 4.295-2.687 5.131 0.569 2.948 4.609 4.876 6.271 6.307v0.008c-0.489 0.24-4.075 2.039-4.915 3.9-0.9 1.96 0.14 3.361 0.82 3.54 2.1 0.581 4.26-0.48 5.42-2.199 1.12-1.681 1.021-3.841 0.539-4.901 0.661-0.18 1.44-0.26 2.44-0.139 2.801 0.32 3.361 2.080 3.24 2.8-0.12 0.719-0.697 1.139-0.899 1.259-0.2 0.121-0.26 0.16-0.241 0.241 0.020 0.12 0.121 0.12 0.28 0.1 0.22-0.040 1.461-0.6 1.521-1.961 0.060-1.72-1.581-3.639-4.5-3.6-1.2 0.021-1.961 0.121-2.5 0.341-0.040-0.060-0.081-0.1-0.14-0.14-1.8-1.94-5.14-3.3-5-5.88 0.040-0.94 0.38-3.419 6.4-6.419 4.94-2.461 8.881-1.78 9.561-0.28 0.977 2.139-2.101 6.12-7.241 6.699-1.96 0.22-2.98-0.539-3.241-0.82-0.279-0.3-0.319-0.32-0.419-0.259-0.16 0.080-0.060 0.34 0 0.5 0.16 0.4 0.78 1.1 1.861 1.46 0.939 0.3 3.24 0.479 6-0.6 3.099-1.199 5.519-4.54 4.819-7.34z"></path>
</symbol>
<symbol id="icon-shopify" viewBox="0 0 32 32">
<path fill="#7ab55c" style="fill: var(--color20, #7ab55c)" d="M20.449 31.972l9.621-2.081c0 0-3.472-23.484-3.5-23.64-0.024-0.155-0.152-0.256-0.281-0.256s-2.572-0.181-2.572-0.181-1.7-1.699-1.919-1.881c-0.060-0.049-0.1-0.076-0.161-0.099l-1.219 28.139zM15.613 15.073c0 0-1.080-0.565-2.365-0.565-1.929 0-2.005 1.208-2.005 1.521 0 1.643 4.32 2.287 4.32 6.172 0 3.060-1.92 5.013-4.541 5.013-3.139 0-4.72-1.953-4.72-1.953l0.861-2.781c0 0 1.66 1.421 3.040 1.421 0.9 0 1.3-0.727 1.3-1.243 0-2.159-3.539-2.259-3.539-5.812-0.045-2.983 2.095-5.888 6.436-5.888 1.676 0 2.5 0.481 2.5 0.481l-1.26 3.62zM14.893 1.107c0.181 0 0.361 0.051 0.54 0.18-1.312 0.62-2.752 2.185-3.344 5.323-0.875 0.284-1.724 0.54-2.519 0.771 0.692-2.38 2.364-6.26 5.323-6.26zM16.54 5.039v0.18c-1.005 0.309-2.111 0.645-3.192 0.981 0.621-2.369 1.777-3.527 2.78-3.961 0.257 0.668 0.412 1.568 0.412 2.8zM17.259 2.060c0.925 0.099 1.521 1.156 1.905 2.34-0.465 0.152-0.98 0.308-1.544 0.488v-0.336c0-1.003-0.128-1.828-0.361-2.495zM21.248 3.779c-0.027 0-0.080 0.028-0.104 0.028s-0.385 0.1-0.952 0.28c-0.564-1.644-1.568-3.16-3.344-3.16h-0.153c-0.515-0.648-1.136-0.927-1.675-0.927-4.141 0-6.12 5.169-6.74 7.795-1.592 0.487-2.751 0.848-2.88 0.899-0.9 0.284-0.925 0.309-1.029 1.16-0.1 0.616-2.44 18.751-2.44 18.751l18.081 3.396z"></path>
</symbol>
<symbol id="icon-sonos" viewBox="0 0 32 32">
<path d="M17.317 16.48l-3.751-3.512v5.905h1.116v-3.273l3.751 3.511v-5.904h-1.116zM8.619 12.887c-0.014-0-0.030-0-0.046-0-1.694 0-3.067 1.373-3.067 3.067 0 0.017 0 0.033 0 0.050l-0-0.002c0 1.676 1.436 3.112 3.112 3.112 0.014 0 0.030 0 0.046 0 1.694 0 3.067-1.373 3.067-3.067 0-0.016-0-0.032-0-0.048l0 0.002c0-0.014 0-0.030 0-0.046 0-1.694-1.373-3.067-3.067-3.067-0.016 0-0.032 0-0.048 0l0.002-0zM8.619 17.995c-0.006 0-0.012 0-0.019 0-1.091 0-1.976-0.885-1.976-1.976 0-0.007 0-0.013 0-0.020v0.001c0-1.117 0.877-1.995 1.995-1.995s1.995 0.877 1.995 1.995-0.877 1.995-1.995 1.995zM3.592 16c-0.32-0.24-0.72-0.4-1.277-0.559-1.117-0.32-1.117-0.639-1.117-0.797 0-0.32 0.399-0.64 0.957-0.64 0.48 0 0.877 0.24 1.037 0.32l0.080 0.080 0.877-0.639-0.080-0.080c0 0-0.717-0.797-1.915-0.797-0.559 0-1.117 0.16-1.516 0.479-0.4 0.32-0.639 0.797-0.639 1.277s0.24 0.957 0.639 1.276c0.32 0.24 0.717 0.4 1.276 0.56 1.117 0.319 1.117 0.637 1.117 0.797 0 0.319-0.399 0.637-0.957 0.637-0.479 0-0.877-0.24-1.037-0.319l-0.080-0.080-0.877 0.639 0.080 0.080c0 0 0.717 0.797 1.915 0.797 0.56 0 1.117-0.16 1.516-0.479 0.4-0.32 0.64-0.797 0.64-1.276 0-0.48-0.24-0.879-0.64-1.277zM23.381 12.888c-0.014-0-0.030-0-0.046-0-1.694 0-3.067 1.373-3.067 3.067 0 0.016 0 0.032 0 0.048l-0-0.002c0.002 1.718 1.394 3.11 3.112 3.112h0c0.014 0 0.030 0 0.046 0 1.694 0 3.067-1.373 3.067-3.067 0-0.016-0-0.032-0-0.048l0 0.002c-0.002-1.718-1.394-3.11-3.112-3.112h-0zM23.381 17.995c-0.006 0-0.012 0-0.019 0-1.091 0-1.976-0.885-1.976-1.976 0-0.007 0-0.013 0-0.020v0.001c0-1.117 0.877-1.995 1.995-1.995s1.995 0.877 1.995 1.995-0.957 1.995-1.995 1.995zM28.408 15.92c0.32 0.24 0.72 0.4 1.277 0.56 1.117 0.319 1.117 0.637 1.117 0.797 0 0.319-0.399 0.637-0.957 0.637-0.48 0-0.877-0.24-1.037-0.319h-0.080l-0.877 0.639 0.080 0.080c0 0 0.717 0.797 1.915 0.797 0.559 0 1.117-0.16 1.516-0.479s0.639-0.797 0.639-1.277-0.24-0.957-0.639-1.276c-0.32-0.24-0.717-0.4-1.276-0.56-1.117-0.319-1.117-0.637-1.117-0.797 0-0.319 0.399-0.637 0.957-0.637 0.479 0 0.877 0.24 1.037 0.319l0.080 0.080 0.877-0.639-0.080-0.080c0 0-0.717-0.797-1.915-0.797-0.56 0-1.117 0.16-1.516 0.479-0.4 0.32-0.64 0.797-0.64 1.276-0.079 0.48 0.16 0.879 0.64 1.197z"></path>
</symbol>
<symbol id="icon-spotify" viewBox="0 0 32 32">
<path fill="#1ed760" style="fill: var(--color21, #1ed760)" d="M16 0c-8.8 0-16 7.2-16 16s7.2 16 16 16 16-7.2 16-16-7.12-16-16-16zM23.361 23.12c-0.32 0.479-0.88 0.64-1.361 0.32-3.76-2.32-8.48-2.801-14.081-1.521-0.557 0.163-1.039-0.239-1.199-0.719-0.16-0.561 0.24-1.040 0.72-1.2 6.080-1.361 11.36-0.8 15.52 1.76 0.56 0.24 0.639 0.879 0.401 1.36zM25.281 18.72c-0.401 0.56-1.121 0.8-1.683 0.4-4.319-2.64-10.879-3.44-15.919-1.84-0.639 0.16-1.36-0.16-1.52-0.8s0.16-1.361 0.8-1.521c5.84-1.759 13.040-0.877 18 2.161 0.481 0.241 0.72 1.040 0.321 1.6zM25.441 14.24c-5.121-3.040-13.681-3.36-18.561-1.839-0.8 0.239-1.6-0.241-1.84-0.961-0.24-0.801 0.24-1.6 0.96-1.841 5.68-1.68 15.040-1.36 20.961 2.161 0.719 0.4 0.959 1.36 0.559 2.080-0.399 0.561-1.36 0.799-2.079 0.4z"></path>
</symbol>
<symbol id="icon-steam" viewBox="0 0 32 32">
<path d="M15.972 0c-8.401 0-15.291 6.48-15.943 14.716l8.576 3.544c0.727-0.495 1.604-0.787 2.549-0.787 0.084 0 0.167 0.005 0.251 0.008l3.815-5.523v-0.079c0-3.327 2.704-6.032 6.032-6.032 3.325 0 6.032 2.708 6.032 6.036s-2.707 6.033-6.032 6.033h-0.14l-5.435 3.881c0 0.069 0.005 0.14 0.005 0.212 0 2.5-2.020 4.528-4.52 4.528-2.18 0-4.021-1.564-4.441-3.636l-6.14-2.543c1.901 6.716 8.067 11.64 15.391 11.64 8.836 0 15.999-7.164 15.999-16s-7.164-16-15.999-16zM10.053 24.28l-1.964-0.813c0.349 0.724 0.952 1.332 1.752 1.667 1.729 0.719 3.724-0.101 4.443-1.833 0.351-0.84 0.352-1.759 0.007-2.599s-1-1.495-1.836-1.844c-0.832-0.347-1.72-0.332-2.504-0.040l2.031 0.84c1.275 0.533 1.879 2 1.345 3.273-0.529 1.276-1.996 1.88-3.272 1.349zM25.273 11.876c0-2.216-1.804-4.020-4.020-4.020-2.22 0-4.020 1.804-4.020 4.020 0 2.22 1.8 4.020 4.020 4.020 2.217 0 4.020-1.8 4.020-4.020zM18.243 11.869c0-1.669 1.351-3.021 3.020-3.021 1.665 0 3.021 1.352 3.021 3.021 0 1.668-1.356 3.020-3.021 3.020-1.671 0-3.020-1.352-3.020-3.020z"></path>
</symbol>
<symbol id="icon-ted" viewBox="0 0 32 32">
<path fill="#e62b1e" style="fill: var(--color22, #e62b1e)" d="M3.241 13.181h-3.241v-2.961h10.040v2.961h-3.24v8.6h-3.559zM10.593 10.22h9.747v2.961h-6.184v1.444h6.184v2.751h-6.184v1.44h6.184v2.967h-9.747zM24.5 18.821h1.395c2.219 0 2.543-1.803 2.543-2.888 0-0.727-0.239-2.751-2.82-2.751h-1.139v5.64zM20.94 10.22h5.845c3.855 0 5.215 2.847 5.215 5.76 0 3.547-1.879 5.801-5.912 5.801h-5.148v-11.564z"></path>
</symbol>
<symbol id="icon-tesla" viewBox="0 0 32 32">
<path fill="#c00" style="fill: var(--color23, #c00)" d="M16 7.149l3.3-4.035c0 0 5.66 0.12 11.295 2.739-1.443 2.181-4.308 3.251-4.308 3.251-0.195-1.919-1.539-2.387-5.805-2.387l-4.481 25.283-4.508-25.288c-4.24 0-5.584 0.472-5.78 2.389 0 0-2.861-1.060-4.305-3.24 5.633-2.62 11.293-2.741 11.293-2.741l3.3 4.029-0.005 0.003h0.005zM16 1.951c4.553-0.040 9.768 0.704 15.104 3.040 0.713-1.291 0.896-1.86 0.896-1.86-5.833-2.315-11.296-3.111-16-3.131-4.704 0.020-10.167 0.813-16 3.132 0 0 0.26 0.7 0.896 1.861 5.336-2.341 10.551-3.080 15.104-3.047z"></path>
</symbol>
<symbol id="icon-tinder" viewBox="0 0 32 32">
<path fill="#ff6b6b" style="fill: var(--color24, #ff6b6b)" d="M12.423 12.601c0.060 0.097 0.164 0.16 0.283 0.16 0.080 0 0.155-0.028 0.211-0.076l0.020-0.016c0.52-0.433 0.988-0.88 1.428-1.356 4.279-4.644 1.78-10.345 1.76-10.399-0.12-0.28-0.040-0.612 0.2-0.792 0.26-0.18 0.58-0.16 0.82 0.044 14.5 13.485 10.66 23.757 10.38 24.449-1.16 4.188-5.78 7.219-11.259 7.373-0.184 0.011-0.323 0.011-0.484 0.011-6.469 0-11.969-3.985-11.969-9.076v-0.080c0-7.063 6.393-14.029 6.679-14.325 0.181-0.199 0.46-0.26 0.7-0.14 0.24 0.101 0.396 0.34 0.388 0.601-0.057 1.381 0.223 2.58 0.841 3.6v0.020z"></path>
</symbol>
<symbol id="icon-treehouse" viewBox="0 0 32 32">
<path fill="#5fcf80" style="fill: var(--color25, #5fcf80)" d="M27.383 5.491c-1.075-0.604-2.789 0.371-3.828 2.18l-1.888 3.283c-0.287 0.548-0.455 1.197-0.455 1.886 0 0.88 0.275 1.697 0.744 2.367l-0.009-0.013 0.055 0.083c0.871 1.253 2.047 2.411 2.431 2.824 0.359 0.383 0.58 0.901 0.58 1.469 0 0.979-0.655 1.806-1.55 2.066l-0.015 0.004c-0.174 0.051-0.374 0.080-0.58 0.080-1.18 0-2.137-0.957-2.137-2.137 0-0.096 0.006-0.19 0.019-0.283l-0.001 0.011c0.060-0.467-0.089-1.236-0.765-1.985-0.675-0.751-2.053 0.667-2.499 2.147l-0.021 0.081c-0.445 1.459-0.728 2.733-0.643 2.857 0.049 0.080 0.096 0.16 0.14 0.243 0.178 0.328 0.283 0.719 0.283 1.134 0 1.333-1.081 2.414-2.414 2.414-0.918 0-1.716-0.512-2.124-1.267l-0.006-0.013c-0.179-0.328-0.284-0.719-0.284-1.134 0-0.917 0.513-1.714 1.267-2.121l0.013-0.006 0.161-0.081c0.087-0.040 0.347-0.648 0.564-1.376l0.401-1.316c0.025-0.063 0.044-0.143 0.060-0.224l1.196-4.253-1.276 2.613c-0.149-0.484-0.4-0.507-0.945-0.121-0.324 0.244-0.871 0.708-1.133 0.892-0.487 0.364-0.913 1.051-1.135 1.479-0.128 0.27-0.314 0.494-0.542 0.663l-0.005 0.003c-0.912 0.752-2.249 0.608-2.979-0.303-0.291-0.36-0.466-0.823-0.466-1.327 0-1.016 0.714-1.865 1.668-2.073l0.014-0.003c0.545-0.123 2.369-1.236 3.461-2.027 0.203-0.141 0.365-0.263 0.507-0.405l2.937-2.227-2.552 1.376c0 0-0.261-0.021-0.568 0.023-0.931 0.1-1.904 0.243-2.085 0.467-0.104 0.146-0.233 0.267-0.381 0.359l-0.006 0.003c-0.849 0.608-2.025 0.427-2.652-0.423-0.219-0.307-0.349-0.69-0.349-1.103 0-0.638 0.312-1.204 0.792-1.552l0.006-0.004c0.345-0.244 0.769-0.365 1.153-0.365 0.691 0.021 2.493 0.387 3.991 0.123l0.384-0.060c1.52-0.261 3.301-1.581 4.032-2.916l1.579-2.756c0.871-1.519 0.811-3.179-0.14-3.727l-1.764-1.013c-0.871-0.484-2.287-0.484-3.139 0l-11.811 6.621c-0.889 0.465-1.599 1.68-1.599 2.673v12.992c0 0.992 0.709 2.208 1.571 2.693l11.8 6.644c0.869 0.487 2.288 0.487 3.139 0l11.768-6.644c0.871-0.491 1.579-1.701 1.579-2.693v-13.013c0-0.992-0.708-2.204-1.559-2.693l-1.947-1.097z"></path>
</symbol>
<symbol id="icon-twitter" viewBox="0 0 32 32">
<path fill="#1da1f2" style="fill: var(--color26, #1da1f2)" d="M31.939 6.092c-1.18 0.519-2.44 0.872-3.767 1.033 1.352-0.815 2.392-2.099 2.884-3.631-1.268 0.74-2.673 1.279-4.169 1.579-1.195-1.279-2.897-2.079-4.788-2.079-3.623 0-6.56 2.937-6.56 6.556 0 0.52 0.060 1.020 0.169 1.499-5.453-0.257-10.287-2.876-13.521-6.835-0.569 0.963-0.888 2.081-0.888 3.3 0 2.28 1.16 4.284 2.917 5.461-1.076-0.035-2.088-0.331-2.971-0.821v0.081c0 3.18 2.257 5.832 5.261 6.436-0.551 0.148-1.132 0.228-1.728 0.228-0.419 0-0.82-0.040-1.221-0.115 0.841 2.604 3.26 4.503 6.139 4.556-2.24 1.759-5.079 2.807-8.136 2.807-0.52 0-1.039-0.031-1.56-0.089 2.919 1.859 6.357 2.945 10.076 2.945 12.072 0 18.665-9.995 18.665-18.648 0-0.279 0-0.56-0.020-0.84 1.281-0.919 2.4-2.080 3.28-3.397z"></path>
</symbol>
<symbol id="icon-udemy" viewBox="0 0 32 32">
<path fill="#ec5252" style="fill: var(--color27, #ec5252)" d="M31.44 17.84c-0.103-0.088-0.229-0.153-0.367-0.186l-0.006-0.001c-0.8 0.813-1.8 1.667-2.667 2.24-0.413 0.267-0.933 0.4-1.267 0.4-0.787 0-1.12-0.733-1.213-1.92-0.146-1.733-0.23-3.751-0.23-5.788 0-0.229 0.001-0.458 0.003-0.687l-0 0.035c0-3.013-0.693-5.067-2.507-5.227l-0.24-0.013c-1.107 0-1.653 0.573-2.36 2.027-0.613 1.253-1.56 3.067-3.307 6.533-1.438 2.839-2.989 5.277-4.746 7.546l0.079-0.106c-0.413 0.507-0.733 0.853-1.040 1.067-0.164 0.114-0.367 0.183-0.586 0.187h-0.001c-0.573 0-1-0.48-1.133-1.613-0.034-0.264-0.053-0.57-0.053-0.88 0-0.014 0-0.028 0-0.042v0.002c0-2.333 0.88-6.133 2.4-11.707 1.107-4.067 0.64-6.84-1.787-6.84h-0.040c-0.547 0-1 0.213-1.44 0.56-0.44 0.333-0.867 1.080-1.28 2.080-0.453 1.12-3.227 6.707-7.653 9.6-0.053 1.080 0.56 2.173 1.827 2.307 1.133 0.107 1.947-0.373 2.987-1.080l-0.213 0.973c-0.221 0.868-0.454 2.042-0.637 3.232l-0.030 0.235c-0.613 5.6 1.96 8.36 4.987 8.36 0.507 0 1.013-0.067 1.507-0.2 3.333-0.84 6.533-4.68 10.333-13.507-0.027 0.44-0.043 0.953-0.043 1.471 0 0.43 0.011 0.858 0.032 1.282l-0.002-0.060c0.253 5.067 2.24 6.573 5.067 6.573 2.133 0 4.12-1.107 5.133-2.493 0.632-0.798 1.023-1.81 1.053-2.913l0-0.007c-0.027-0.653-0.227-1.173-0.56-1.44z"></path>
</symbol>
<symbol id="icon-vine" viewBox="0 0 32 32">
<path fill="#11b48a" style="fill: var(--color28, #11b48a)" d="M30.028 15.896c-0.824 0.191-1.623 0.275-2.344 0.275-4.037 0-7.148-2.821-7.148-7.725 0-2.401 0.941-3.641 2.261-3.641 1.261 0 2.083 1.121 2.083 3.403 0 1.3-0.341 2.721-0.6 3.563 0 0 1.24 2.181 4.641 1.5 0.72-1.601 1.123-3.683 1.123-5.503 0-4.905-2.501-7.767-7.085-7.767-4.724-0.023-7.487 3.6-7.487 8.384 0 4.733 2.212 8.796 5.86 10.647-1.533 3.068-3.485 5.771-5.523 7.808-3.692-4.468-7.031-10.427-8.403-22.055h-5.451c2.519 19.368 10.023 25.532 12.005 26.713 1.12 0.672 2.088 0.64 3.115 0.065 1.62-0.917 6.464-5.753 9.145-11.417 1.12-0.004 2.481-0.133 3.823-0.437v-3.82z"></path>
</symbol>
<symbol id="icon-visualstudiocode" viewBox="0 0 32 32">
<path fill="#007acc" style="fill: var(--color29, #007acc)" d="M30.867 3.449l-6.587-3.169c-0.253-0.124-0.55-0.197-0.864-0.197-0.55 0-1.049 0.223-1.409 0.584v0l-12.613 11.507-5.493-4.171c-0.221-0.169-0.501-0.271-0.805-0.271-0.346 0-0.661 0.132-0.897 0.348l-1.762 1.602c-0.269 0.245-0.436 0.596-0.436 0.987s0.167 0.741 0.434 0.984l0.001 0.001 4.764 4.347-4.764 4.347c-0.268 0.245-0.435 0.596-0.435 0.985s0.168 0.742 0.435 0.986l0.001 0.001 1.764 1.601c0.236 0.215 0.551 0.347 0.896 0.347 0.304 0 0.584-0.102 0.808-0.273l-0.003 0.002 5.493-4.171 12.613 11.507c0.36 0.361 0.858 0.584 1.408 0.584 0.314 0 0.611-0.073 0.876-0.203l-0.012 0.005 6.589-3.169c0.675-0.331 1.131-1.013 1.131-1.801 0-0.001 0-0.001 0-0.002v0-21.495c0-0 0-0 0-0 0-0.789-0.457-1.472-1.122-1.797l-0.012-0.005zM24.005 23.264l-9.571-7.264 9.571-7.264z"></path>
</symbol>
<symbol id="icon-whatsapp" viewBox="0 0 32 32">
<path fill="#25d366" style="fill: var(--color30, #25d366)" d="M23.331 19.176c-0.401-0.2-2.356-1.156-2.72-1.288-0.364-0.135-0.631-0.2-0.897 0.2-0.263 0.393-1.028 1.285-1.259 1.549-0.233 0.26-0.465 0.28-0.861 0.1-0.4-0.2-1.684-0.62-3.204-1.98-1.184-1.060-1.979-2.36-2.213-2.76-0.232-0.4-0.025-0.62 0.173-0.82 0.181-0.18 0.401-0.46 0.601-0.697 0.195-0.241 0.259-0.401 0.396-0.661 0.133-0.28 0.065-0.5-0.033-0.699-0.1-0.2-0.896-2.16-1.229-2.941-0.32-0.779-0.649-0.68-0.896-0.68-0.229-0.020-0.495-0.020-0.761-0.020s-0.697 0.099-1.063 0.479c-0.364 0.4-1.393 1.36-1.393 3.3s1.427 3.82 1.625 4.1c0.199 0.26 2.807 4.26 6.8 5.98 0.952 0.4 1.693 0.64 2.272 0.839 0.952 0.303 1.82 0.26 2.507 0.161 0.765-0.121 2.356-0.961 2.688-1.901 0.34-0.94 0.34-1.72 0.24-1.9-0.099-0.18-0.36-0.28-0.76-0.46zM16.081 29h-0.021c-2.36 0-4.699-0.64-6.74-1.84l-0.48-0.285-5 1.3 1.34-4.86-0.319-0.5c-1.32-2.101-2.021-4.521-2.021-7.013 0-7.26 5.94-13.18 13.256-13.18 3.539 0 6.86 1.38 9.361 3.88 2.5 2.479 3.879 5.8 3.879 9.32-0.005 7.259-5.947 13.18-13.247 13.18zM27.36 4.599c-3.040-2.939-7.040-4.599-11.3-4.599-8.776 0-15.921 7.112-15.925 15.857 0 2.795 0.732 5.52 2.127 7.927l-2.261 8.216 8.447-2.203c2.328 1.257 4.947 1.925 7.613 1.929h0.008c8.78 0 15.928-7.115 15.932-15.861 0-4.235-1.653-8.22-4.66-11.215z"></path>
</symbol>
<symbol id="icon-wii" viewBox="0 0 32 32">
<path fill="#8b8b8b" style="fill: var(--color31, #8b8b8b)" d="M23.872 8.348c-0.972-0.019-1.773 0.753-1.792 1.724v0.024c0.016 0.976 0.816 1.753 1.792 1.74 1.044 0 1.872-0.772 1.872-1.74 0.001-0.976-0.827-1.748-1.872-1.748zM30.152 8.348c-0.996 0-1.813 0.773-1.813 1.748 0 0.948 0.817 1.74 1.815 1.74 1.023 0 1.847-0.772 1.847-1.74 0-0.976-0.824-1.748-1.848-1.748zM10.365 9.072c-0.997 0-1.669 0.499-2.019 1.62-0.323 1.143-2.392 9.096-2.392 9.096l-2.715-10.592h-3.24c0 0 3.112 11.285 3.536 12.608 0.321 1.020 1.12 1.848 2.267 1.848 1.345 0 1.972-0.976 2.245-1.848 0.3-0.901 2.317-8.348 2.317-8.348s2.020 7.452 2.292 8.348c0.3 0.871 0.92 1.848 2.243 1.848 1.172 0 1.941-0.828 2.293-1.848 0.42-1.32 3.543-12.608 3.543-12.608h-3.267l-2.695 10.592c0 0-2.067-7.953-2.416-9.096-0.323-1.125-1.027-1.62-1.993-1.62zM22.376 13.556v9.993h3.096v-9.993zM28.633 13.556v9.993h3.089v-9.993z"></path>
</symbol>
<symbol id="icon-xbox" viewBox="0 0 32 32">
<path fill="#107c10" style="fill: var(--color32, #107c10)" d="M5.469 28.044c2.812 2.464 6.5 3.956 10.531 3.956 4.035 0 7.719-1.492 10.536-3.956 2.503-2.549-5.755-11.612-10.536-15.223-4.776 3.611-13.039 12.673-10.531 15.223zM20.349 8.836c3.333 3.948 9.979 13.751 8.101 17.216 2.219-2.745 3.549-6.237 3.549-10.047 0-4.453-1.82-8.483-4.76-11.381 0 0-0.036-0.029-0.109-0.056-0.084-0.029-0.203-0.060-0.375-0.060-0.789 0-2.647 0.579-6.407 4.328zM4.872 4.568c-0.076 0.027-0.109 0.055-0.115 0.056-2.937 2.899-4.757 6.928-4.757 11.381 0 3.805 1.331 7.297 3.548 10.044-1.868-3.473 4.772-13.268 8.107-17.213-3.76-3.751-5.621-4.327-6.408-4.327-0.175 0-0.297 0.028-0.375 0.061zM16 4.735c0 0-3.927-2.297-6.993-2.407-1.204-0.044-1.939 0.393-2.028 0.452 2.86-1.919 5.9-2.78 9-2.78h0.021c3.112 0 6.14 0.861 9.021 2.78-0.091-0.061-0.82-0.496-2.027-0.452-3.067 0.109-6.995 2.399-6.995 2.399z"></path>
</symbol>
<symbol id="icon-yamahacorporation" viewBox="0 0 32 32">
<path fill="#4b1e78" style="fill: var(--color33, #4b1e78)" d="M16 0c-8.837 0-16 7.163-16 16s7.163 16 16 16c8.837 0 16-7.163 16-16v0c0-8.837-7.163-16-16-16v0zM15.451 1.836c0.17-0.007 0.37-0.011 0.571-0.011 7.833 0 14.185 6.344 14.197 14.174v0.001c0 0.006 0 0.014 0 0.021 0 7.841-6.356 14.197-14.197 14.197-0.008 0-0.015 0-0.023-0h0.001c-7.827-0.019-14.164-6.368-14.164-14.197 0-7.636 6.028-13.864 13.586-14.184l0.029-0.001zM16 2.533c-0.108 0.003-0.199 0.075-0.229 0.173l-0 0.002-1.177 3.368c-0.003 0.019-0.004 0.042-0.004 0.065s0.001 0.045 0.004 0.067l-0-0.003c0 0 0 0.001 0 0.001 0 0.138 0.070 0.259 0.176 0.331l0.001 0.001c0.323 0.226 0.531 0.596 0.531 1.015 0 0.375-0.167 0.711-0.431 0.937l-0.002 0.001c-0.671 0.577-1.093 1.427-1.093 2.375 0 0.004 0 0.008 0 0.012v-0.001 1.204l-5.956-3.419-0.729 1.271 6.649 3.836v0.923l-0.803 0.463-6.637-3.84-0.735 1.272 5.904 3.412-1.043 0.6c-0.779 0.461-1.335 1.23-1.5 2.136l-0.003 0.019c-0.112 0.579-0.615 1.010-1.218 1.010-0.193 0-0.375-0.044-0.538-0.123l0.007 0.003c-0.053-0.029-0.117-0.046-0.185-0.046s-0.131 0.017-0.187 0.047l0.002-0.001c-0.041 0.023-0.075 0.051-0.105 0.084l-0 0-2.323 2.716c-0.036 0.043-0.057 0.099-0.057 0.159 0 0.138 0.112 0.251 0.251 0.251 0.015 0 0.029-0.001 0.043-0.004l-0.002 0 3.511-0.657c0.045-0.011 0.085-0.027 0.122-0.048l-0.002 0.001c0.114-0.065 0.192-0.181 0.203-0.316l0-0.001c0.064-0.627 0.59-1.113 1.229-1.113 0.148 0 0.291 0.026 0.423 0.074l-0.009-0.003c0.309 0.112 0.665 0.177 1.036 0.177 0.578 0 1.119-0.157 1.584-0.43l-0.015 0.008 1.040-0.601v6.805h1.464v-7.675l0.797-0.459 0.797 0.459v7.675h1.467v-6.831l1.040 0.6c0.45 0.265 0.991 0.422 1.569 0.422 0.371 0 0.728-0.065 1.058-0.184l-0.022 0.007c0.124-0.046 0.267-0.072 0.416-0.072 0.64 0 1.166 0.487 1.228 1.11l0 0.005c0.006 0.137 0.084 0.254 0.197 0.316l0.002 0.001c0.035 0.020 0.075 0.036 0.117 0.046l0.003 0.001 3.512 0.656c0.017 0.004 0.036 0.006 0.056 0.006 0.136 0 0.245-0.11 0.245-0.245 0-0.065-0.025-0.124-0.066-0.168l0 0 0.005 0.027-2.325-2.716c-0.029-0.032-0.062-0.059-0.098-0.083l-0.002-0.001c-0.054-0.029-0.118-0.046-0.187-0.046s-0.133 0.017-0.189 0.047l0.002-0.001c-0.156 0.075-0.338 0.118-0.531 0.118-0.228 0-0.443-0.061-0.627-0.168l0.006 0.003c-0.3-0.184-0.513-0.484-0.578-0.836l-0.001-0.008c-0.179-0.922-0.739-1.687-1.505-2.137l-0.015-0.008-1.043-0.6 5.915-3.411-0.732-1.273-6.64 3.831-0.803-0.463v-0.923l6.647-3.836-0.729-1.271-5.919 3.419v-1.205c0-0.009 0-0.019 0-0.030 0-0.938-0.413-1.78-1.067-2.353l-0.004-0.003c-0.266-0.227-0.433-0.562-0.433-0.937 0-0.421 0.212-0.792 0.534-1.014l0.004-0.003c0.104-0.076 0.17-0.197 0.171-0.333v-0c0.004-0.019 0.006-0.042 0.006-0.065s-0.002-0.045-0.006-0.067l0 0.002-1.232-3.369c-0.032-0.101-0.125-0.173-0.235-0.173-0.002 0-0.004 0-0.006 0h0zM16.028 9.883c0.43 0.013 0.773 0.365 0.773 0.797 0 0 0 0 0 0v-0 2.253l-0.796 0.463-0.797-0.464v-2.252c0-0 0-0 0-0 0-0.44 0.357-0.797 0.797-0.797 0.008 0 0.016 0 0.024 0l-0.001-0zM16.005 14.973l0.916 0.521v1.041l-0.916 0.521-0.917-0.52v-1.043zM19.071 16.844l1.947 1.129c0.242 0.14 0.403 0.398 0.403 0.693 0 0.146-0.039 0.283-0.108 0.4l0.002-0.004v0.005c-0.142 0.24-0.399 0.399-0.694 0.399-0.147 0-0.285-0.040-0.404-0.109l0.004 0.002-1.953-1.125v-0.928zM12.943 16.849l0.803 0.463v0.923l-1.953 1.125c-0.114 0.067-0.252 0.107-0.399 0.107-0.44 0-0.797-0.357-0.797-0.797 0-0.294 0.159-0.55 0.395-0.689l0.004-0.002z"></path>
</symbol>
<symbol id="icon-youtube" viewBox="0 0 32 32">
<path fill="#f00" style="fill: var(--color1, #f00)" d="M31.327 8.273c-0.386-1.353-1.431-2.398-2.756-2.777l-0.028-0.007c-2.493-0.668-12.528-0.668-12.528-0.668s-10.009-0.013-12.528 0.668c-1.353 0.386-2.398 1.431-2.777 2.756l-0.007 0.028c-0.443 2.281-0.696 4.903-0.696 7.585 0 0.054 0 0.109 0 0.163l-0-0.008c-0 0.037-0 0.082-0 0.126 0 2.682 0.253 5.304 0.737 7.845l-0.041-0.26c0.386 1.353 1.431 2.398 2.756 2.777l0.028 0.007c2.491 0.669 12.528 0.669 12.528 0.669s10.008 0 12.528-0.669c1.353-0.386 2.398-1.431 2.777-2.756l0.007-0.028c0.425-2.233 0.668-4.803 0.668-7.429 0-0.099-0-0.198-0.001-0.297l0 0.015c0.001-0.092 0.001-0.201 0.001-0.31 0-2.626-0.243-5.196-0.708-7.687l0.040 0.258zM12.812 20.801v-9.591l8.352 4.803z"></path>
</symbol>
<symbol id="icon-zillow" viewBox="0 0 32 32">
<path fill="#0074e4" style="fill: var(--color34, #0074e4)" d="M23.175 24.075c-9.907 0.593-20.68 4.18-21.816 4.68l1.319-3.719c3.361-1.555 11.7-4.625 21.981-5.359-0.2 0.76-1.281 3.561-1.5 4.38zM26.707 14.063c0 0-0.484 1.020-0.945 2.419-3.939 0.24-10.18 1.539-13.22 2.64 1.581-1.44 11.581-11.48 11.581-11.48 3.857 2.639 7.877 5.899 7.877 5.899l-5.293 0.527zM3.307 14.503c2.196-1 8.353-2.861 14.247-4.241 0 0-11.329 10.46-14.479 13.7l2.6-7.040c-2.021 0.3-2.912 0.42-5.675 1l3.305-3.401zM17.44 3.26c0.979 0.479 4.6 2.94 5.892 3.851-4.128 0.099-12.18 1.879-15.536 3 2.753-2.091 7.871-6.040 9.644-6.864z"></path>
</symbol>
<symbol id="icon-zoom" viewBox="0 0 32 32">
<path fill="#2d8cff" style="fill: var(--color35, #2d8cff)" d="M6.116 18.173l-0.36-0.016h-3.236l4.313-4.313-0.017-0.36c-0.014-0.579-0.481-1.046-1.059-1.060l-0.001-0-0.36-0.017h-5.391l0.019 0.36c0.045 0.584 0.471 1.027 1.059 1.060l0.36 0.017h3.237l-4.316 4.313 0.019 0.359c0.020 0.577 0.483 1.040 1.060 1.061l0.36 0.017h5.392l-0.019-0.36c-0.048-0.591-0.467-1.023-1.060-1.061zM10.432 12.407h-0.005c-1.983 0.002-3.591 1.61-3.591 3.593s1.609 3.593 3.593 3.593 3.593-1.609 3.593-3.593c0-1.984-1.607-3.592-3.591-3.593h-0zM11.953 17.525c-0.394 0.413-0.948 0.67-1.563 0.67-1.191 0-2.157-0.966-2.157-2.157 0-0.614 0.257-1.169 0.669-1.562l0.001-0.001c0.386-0.368 0.911-0.595 1.488-0.595 1.191 0 2.157 0.966 2.157 2.157 0 0.577-0.226 1.101-0.595 1.488l0.001-0.001zM29.116 12.408c-0.856 0.001-1.624 0.375-2.151 0.969l-0.003 0.003c-0.528-0.599-1.298-0.975-2.155-0.975-0.001 0-0.002 0-0.003 0h0c-0.001 0-0.003 0-0.004 0-0.6 0-1.156 0.184-1.616 0.5l0.010-0.006c-0.28-0.311-0.907-0.493-1.264-0.493v7.189l0.36-0.017c0.6-0.040 1.036-0.465 1.060-1.061l0.017-0.36v-2.516l0.019-0.36c0.013-0.269 0.053-0.509 0.176-0.72 0.253-0.432 0.715-0.717 1.244-0.717 0.265 0 0.514 0.072 0.727 0.197l-0.007-0.004c0.218 0.128 0.395 0.305 0.519 0.516l0.004 0.007c0.124 0.213 0.16 0.452 0.176 0.72l0.019 0.361v2.516l0.017 0.359c0.036 0.587 0.467 1.024 1.060 1.061l0.36 0.017v-3.953l0.016-0.36c0.013-0.267 0.053-0.512 0.179-0.724 0.399-0.685 1.279-0.92 1.964-0.52 0.218 0.128 0.395 0.305 0.519 0.517l0.004 0.007c0.123 0.213 0.16 0.457 0.175 0.72l0.019 0.36v2.516l0.017 0.359c0.037 0.591 0.467 1.027 1.061 1.061l0.36 0.017v-4.313c-0.002-1.587-1.289-2.872-2.876-2.872-0.001 0-0.002 0-0.003 0h0zM15.436 13.459c-0.69 0.656-1.119 1.581-1.119 2.606 0 1.985 1.609 3.595 3.595 3.595 1.024 0 1.948-0.428 2.603-1.115l0.001-0.001c0.613-0.643 0.99-1.517 0.99-2.478 0-1.985-1.609-3.595-3.595-3.595-0.96 0-1.832 0.376-2.477 0.99l0.002-0.001zM19.501 17.525c-0.392 0.402-0.94 0.652-1.545 0.652-1.191 0-2.157-0.966-2.157-2.157 0-0.606 0.25-1.153 0.652-1.545l0-0c0.388-0.379 0.92-0.612 1.505-0.612 1.191 0 2.157 0.966 2.157 2.157 0 0.586-0.233 1.117-0.612 1.506l0-0z"></path>
</symbol>
<symbol id="icon-arrow-up2" viewBox="0 0 32 32">
<path d="M27.414 12.586l-10-10c-0.781-0.781-2.047-0.781-2.828 0l-10 10c-0.781 0.781-0.781 2.047 0 2.828s2.047 0.781 2.828 0l6.586-6.586v19.172c0 1.105 0.895 2 2 2s2-0.895 2-2v-19.172l6.586 6.586c0.39 0.39 0.902 0.586 1.414 0.586s1.024-0.195 1.414-0.586c0.781-0.781 0.781-2.047 0-2.828z"></path>
</symbol>
<symbol id="icon-facebook" viewBox="0 0 32 32">
<path d="M19 6h5v-6h-5c-3.86 0-7 3.14-7 7v3h-4v6h4v16h6v-16h5l1-6h-6v-3c0-0.542 0.458-1 1-1z"></path>
</symbol>
<symbol id="icon-instagram1" viewBox="0 0 32 32">
<path d="M16 2.881c4.275 0 4.781 0.019 6.462 0.094 1.563 0.069 2.406 0.331 2.969 0.55 0.744 0.288 1.281 0.638 1.837 1.194 0.563 0.563 0.906 1.094 1.2 1.838 0.219 0.563 0.481 1.412 0.55 2.969 0.075 1.688 0.094 2.194 0.094 6.463s-0.019 4.781-0.094 6.463c-0.069 1.563-0.331 2.406-0.55 2.969-0.288 0.744-0.637 1.281-1.194 1.837-0.563 0.563-1.094 0.906-1.837 1.2-0.563 0.219-1.413 0.481-2.969 0.55-1.688 0.075-2.194 0.094-6.463 0.094s-4.781-0.019-6.463-0.094c-1.563-0.069-2.406-0.331-2.969-0.55-0.744-0.288-1.281-0.637-1.838-1.194-0.563-0.563-0.906-1.094-1.2-1.837-0.219-0.563-0.481-1.413-0.55-2.969-0.075-1.688-0.094-2.194-0.094-6.463s0.019-4.781 0.094-6.463c0.069-1.563 0.331-2.406 0.55-2.969 0.288-0.744 0.638-1.281 1.194-1.838 0.563-0.563 1.094-0.906 1.838-1.2 0.563-0.219 1.412-0.481 2.969-0.55 1.681-0.075 2.188-0.094 6.463-0.094zM16 0c-4.344 0-4.887 0.019-6.594 0.094-1.7 0.075-2.869 0.35-3.881 0.744-1.056 0.412-1.95 0.956-2.837 1.85-0.894 0.888-1.438 1.781-1.85 2.831-0.394 1.019-0.669 2.181-0.744 3.881-0.075 1.713-0.094 2.256-0.094 6.6s0.019 4.887 0.094 6.594c0.075 1.7 0.35 2.869 0.744 3.881 0.413 1.056 0.956 1.95 1.85 2.837 0.887 0.887 1.781 1.438 2.831 1.844 1.019 0.394 2.181 0.669 3.881 0.744 1.706 0.075 2.25 0.094 6.594 0.094s4.888-0.019 6.594-0.094c1.7-0.075 2.869-0.35 3.881-0.744 1.050-0.406 1.944-0.956 2.831-1.844s1.438-1.781 1.844-2.831c0.394-1.019 0.669-2.181 0.744-3.881 0.075-1.706 0.094-2.25 0.094-6.594s-0.019-4.887-0.094-6.594c-0.075-1.7-0.35-2.869-0.744-3.881-0.394-1.063-0.938-1.956-1.831-2.844-0.887-0.887-1.781-1.438-2.831-1.844-1.019-0.394-2.181-0.669-3.881-0.744-1.712-0.081-2.256-0.1-6.6-0.1v0z"></path>
<path d="M16 7.781c-4.537 0-8.219 3.681-8.219 8.219s3.681 8.219 8.219 8.219 8.219-3.681 8.219-8.219c0-4.537-3.681-8.219-8.219-8.219zM16 21.331c-2.944 0-5.331-2.387-5.331-5.331s2.387-5.331 5.331-5.331c2.944 0 5.331 2.387 5.331 5.331s-2.387 5.331-5.331 5.331z"></path>
<path d="M26.462 7.456c0 1.060-0.859 1.919-1.919 1.919s-1.919-0.859-1.919-1.919c0-1.060 0.859-1.919 1.919-1.919s1.919 0.859 1.919 1.919z"></path>
</symbol>
<symbol id="icon-twitter1" viewBox="0 0 32 32">
<path d="M32 7.075c-1.175 0.525-2.444 0.875-3.769 1.031 1.356-0.813 2.394-2.1 2.887-3.631-1.269 0.75-2.675 1.3-4.169 1.594-1.2-1.275-2.906-2.069-4.794-2.069-3.625 0-6.563 2.938-6.563 6.563 0 0.512 0.056 1.012 0.169 1.494-5.456-0.275-10.294-2.888-13.531-6.862-0.563 0.969-0.887 2.1-0.887 3.3 0 2.275 1.156 4.287 2.919 5.463-1.075-0.031-2.087-0.331-2.975-0.819 0 0.025 0 0.056 0 0.081 0 3.181 2.263 5.838 5.269 6.437-0.55 0.15-1.131 0.231-1.731 0.231-0.425 0-0.831-0.044-1.237-0.119 0.838 2.606 3.263 4.506 6.131 4.563-2.25 1.762-5.075 2.813-8.156 2.813-0.531 0-1.050-0.031-1.569-0.094 2.913 1.869 6.362 2.95 10.069 2.95 12.075 0 18.681-10.006 18.681-18.681 0-0.287-0.006-0.569-0.019-0.85 1.281-0.919 2.394-2.075 3.275-3.394z"></path>
</symbol>
<symbol id="icon-youtube1" viewBox="0 0 32 32">
<path d="M31.681 9.6c0 0-0.313-2.206-1.275-3.175-1.219-1.275-2.581-1.281-3.206-1.356-4.475-0.325-11.194-0.325-11.194-0.325h-0.012c0 0-6.719 0-11.194 0.325-0.625 0.075-1.987 0.081-3.206 1.356-0.963 0.969-1.269 3.175-1.269 3.175s-0.319 2.588-0.319 5.181v2.425c0 2.587 0.319 5.181 0.319 5.181s0.313 2.206 1.269 3.175c1.219 1.275 2.819 1.231 3.531 1.369 2.563 0.244 10.881 0.319 10.881 0.319s6.725-0.012 11.2-0.331c0.625-0.075 1.988-0.081 3.206-1.356 0.962-0.969 1.275-3.175 1.275-3.175s0.319-2.587 0.319-5.181v-2.425c-0.006-2.588-0.325-5.181-0.325-5.181zM12.694 20.15v-8.994l8.644 4.513-8.644 4.481z"></path>
</symbol>
<symbol id="icon-linkedin2" viewBox="0 0 32 32">
<path d="M12 12h5.535v2.837h0.079c0.77-1.381 2.655-2.837 5.464-2.837 5.842 0 6.922 3.637 6.922 8.367v9.633h-5.769v-8.54c0-2.037-0.042-4.657-3.001-4.657-3.005 0-3.463 2.218-3.463 4.509v8.688h-5.767v-18z"></path>
<path d="M2 12h6v18h-6v-18z"></path>
<path d="M8 7c0 1.657-1.343 3-3 3s-3-1.343-3-3c0-1.657 1.343-3 3-3s3 1.343 3 3z"></path>
</symbol>
</defs>
</svg>
